<mxfile host="app.diagrams.net" modified="2022-12-09T15:44:42.805Z" agent="5.0 (Windows NT 10.0; Win64; x64) AppleWebKit/537.36 (KHTML, like Gecko) Chrome/108.0.0.0 Safari/537.36" etag="zhDJPfXrgsLQ2-hQLTxq" version="20.6.2" type="github">
  <diagram id="VJmNQ5RKetdCZliN5eJB" name="Page-1">
    <mxGraphModel dx="1422" dy="3001" grid="1" gridSize="10" guides="1" tooltips="1" connect="1" arrows="1" fold="1" page="1" pageScale="1" pageWidth="850" pageHeight="1100" math="0" shadow="0">
      <root>
        <mxCell id="0" />
        <mxCell id="1" parent="0" />
        <mxCell id="4WFZzYb8yz6Z_idM63du-41" value="AVDE" style="sketch=0;outlineConnect=0;gradientColor=none;html=1;whiteSpace=wrap;fontSize=12;fontStyle=0;shape=mxgraph.aws4.group;grIcon=mxgraph.aws4.group_on_premise;strokeColor=#000000;fillColor=none;verticalAlign=top;align=left;spacingLeft=30;fontColor=#000000;dashed=0;" vertex="1" parent="1">
          <mxGeometry x="70" y="-1900" width="400" height="290" as="geometry" />
        </mxCell>
        <mxCell id="4WFZzYb8yz6Z_idM63du-42" value="Bitbucket" style="image;image=img/lib/atlassian/Bitbucket_Logo.svg;strokeColor=#000000;fontColor=#000000;" vertex="1" parent="1">
          <mxGeometry x="120" y="-1790" width="65" height="65" as="geometry" />
        </mxCell>
        <mxCell id="4WFZzYb8yz6Z_idM63du-43" value="" style="points=[[0.25,0,0],[0.5,0,0],[0.75,0,0],[1,0.25,0],[1,0.5,0],[1,0.75,0],[0.75,1,0],[0.5,1,0],[0.25,1,0],[0,0.75,0],[0,0.5,0],[0,0.25,0]];rounded=0;arcSize=10;strokeColor=#326ce5;fillColor=none;gradientColor=none;strokeWidth=1;whiteSpace=wrap;fontColor=#000000;" vertex="1" parent="1">
          <mxGeometry x="230" y="-1850" width="195" height="195" as="geometry" />
        </mxCell>
        <mxCell id="4WFZzYb8yz6Z_idM63du-44" value="" style="sketch=0;aspect=fixed;html=1;points=[];align=center;image;fontSize=12;image=img/lib/mscae/Kubernetes.svg;rounded=0;strokeColor=#000000;strokeWidth=1;fontColor=#000000;" vertex="1" parent="1">
          <mxGeometry x="233" y="-1847" width="37" height="35.52" as="geometry" />
        </mxCell>
        <mxCell id="4WFZzYb8yz6Z_idM63du-45" value="Skynet Kubernetes Cluster" style="text;html=1;strokeColor=none;fillColor=none;align=left;verticalAlign=middle;whiteSpace=wrap;rounded=0;strokeWidth=1;fontColor=#000000;" vertex="1" parent="1">
          <mxGeometry x="273" y="-1847" width="150" height="30" as="geometry" />
        </mxCell>
        <mxCell id="4WFZzYb8yz6Z_idM63du-46" value="AWS GovCloud" style="points=[[0,0],[0.25,0],[0.5,0],[0.75,0],[1,0],[1,0.25],[1,0.5],[1,0.75],[1,1],[0.75,1],[0.5,1],[0.25,1],[0,1],[0,0.75],[0,0.5],[0,0.25]];outlineConnect=0;gradientColor=none;html=1;whiteSpace=wrap;fontSize=12;fontStyle=0;container=0;pointerEvents=0;collapsible=0;recursiveResize=0;shape=mxgraph.aws4.group;grIcon=mxgraph.aws4.group_aws_cloud_alt;strokeColor=#232F3E;fillColor=none;verticalAlign=top;align=left;spacingLeft=30;fontColor=#232F3E;dashed=0;strokeWidth=2;" vertex="1" parent="1">
          <mxGeometry x="550" y="-1900" width="520" height="290" as="geometry" />
        </mxCell>
        <mxCell id="4WFZzYb8yz6Z_idM63du-47" value="us-gov-west-1" style="points=[[0,0],[0.25,0],[0.5,0],[0.75,0],[1,0],[1,0.25],[1,0.5],[1,0.75],[1,1],[0.75,1],[0.5,1],[0.25,1],[0,1],[0,0.75],[0,0.5],[0,0.25]];outlineConnect=0;gradientColor=none;html=1;whiteSpace=wrap;fontSize=12;fontStyle=0;container=1;pointerEvents=0;collapsible=0;recursiveResize=0;shape=mxgraph.aws4.group;grIcon=mxgraph.aws4.group_region;strokeColor=#147EBA;fillColor=none;verticalAlign=top;align=left;spacingLeft=30;fontColor=#147EBA;dashed=1;" vertex="1" parent="1">
          <mxGeometry x="590" y="-1870" width="450" height="230" as="geometry" />
        </mxCell>
        <mxCell id="4WFZzYb8yz6Z_idM63du-48" value="Schedules / manages Kubernetes objects" style="text;html=1;strokeColor=none;fillColor=none;align=center;verticalAlign=middle;whiteSpace=wrap;rounded=0;" vertex="1" parent="4WFZzYb8yz6Z_idM63du-47">
          <mxGeometry x="105" y="67.5" width="125" height="50" as="geometry" />
        </mxCell>
        <mxCell id="4WFZzYb8yz6Z_idM63du-49" value="" style="group" vertex="1" connectable="0" parent="1">
          <mxGeometry x="299" y="-1790" width="65" height="90" as="geometry" />
        </mxCell>
        <mxCell id="4WFZzYb8yz6Z_idM63du-50" value="Argo CD" style="text;html=1;strokeColor=none;fillColor=none;align=center;verticalAlign=middle;whiteSpace=wrap;rounded=0;" vertex="1" parent="4WFZzYb8yz6Z_idM63du-49">
          <mxGeometry y="60" width="65" height="30" as="geometry" />
        </mxCell>
        <mxCell id="4WFZzYb8yz6Z_idM63du-51" value="" style="group" vertex="1" connectable="0" parent="4WFZzYb8yz6Z_idM63du-49">
          <mxGeometry width="65" height="65" as="geometry" />
        </mxCell>
        <mxCell id="4WFZzYb8yz6Z_idM63du-52" value="" style="whiteSpace=wrap;html=1;strokeColor=#ef7b4d;" vertex="1" parent="4WFZzYb8yz6Z_idM63du-51">
          <mxGeometry width="65" height="65" as="geometry" />
        </mxCell>
        <mxCell id="4WFZzYb8yz6Z_idM63du-53" style="shape=image;editableCssRules=.*;image=data:image/svg+xml,PHN2ZyB2aWV3Qm94PSIwIDAgMjQgMjQiIHhtbG5zPSJodHRwOi8vd3d3LnczLm9yZy8yMDAwL3N2ZyI+PHN0eWxlPip7ZmlsbDojRUY3QjREfTwvc3R5bGU+PHBhdGggZD0iTTEyLjU4MSAwYy40MzYuMDM3Ljg3MS4xIDEuMjk5LjE4NiAxLjY3OS4zODMgMy4xMjEgMS4yMTMgNC4zODIgMi4zNjUgMS4xNjEgMS4wNiAxLjkxNyAyLjM3MiAyLjMzNSAzLjg4MS4wODkuMzIxLjIxNi41Ni41ODYuNjI0LjIwNS4wMzUuMjM4LjI0NS4yMzkuNDMuMDAzLjY0Ni4wMDIgMS4yOTQuMDAyIDEuOTRsLS4wMDIgMS4yMWMtLjAwMS4zNTYtLjExNi40NzktLjQ2Ni40NzQtLjIxMS0uMDAzLS4yOTMuMTE5LS4zNDQuMjkxLS4xNDYuNDg5LS4zMy45NjYtLjU1MiAxLjQyNi0uODE4IDEuNjgyLTIuMDg0IDIuOTM4LTMuNjg4IDMuODctLjA3Ny4wNDUtLjE1NS4wODgtLjIzMy4xMzEtLjI1Mi4xMzctLjI1OC4xNDYtLjE1NS40MTUuMTE0LjI5OS4zNTguNTI5LjY2NC42MjUuMjY5LjA5Ni41NTMuMTM0LjgyNy4yMWEuNjcyLjY3MiAwIDAgMSAuMjM2LjA5NGMtLjA2Ni4wODItLjE1Ni4wNjctLjIzMS4wODItLjM2LjA3My0uNzEzLjE4NC0xLjA4Ni4xN2ExLjI3NSAxLjI3NSAwIDAgMS0uNDM4LS4wNjRjLS4xMTQtLjA0NS0uMTUyLS4wMDYtLjE3Ni4xMDlhNS4zNTQgNS4zNTQgMCAwIDAtLjA4NC45MmMtLjAxNS42MTctLjA3MSAxLjIzLS4xMTIgMS44NDQtLjA0Mi41OTgtLjAxOC42NTEuNTU4Ljg0Mi4yODEuMDk0LjU2My4xODcuODQyLjI4Ni4wNjkuMDI0LjE1LjAzOC4xOTIuMTE3LS4wNC4wNTctLjA5OC4wMzUtLjE0Ni4wMzUtLjQ5My4wMDMtLjk4NS4wMDUtMS40NzguMDAxLS41MjQtLjAwNS0uODA2LS4yODItLjg0NS0uODAzLS4wNTUtLjc2Mi0uMTItMS41MjQtLjE4Mi0yLjI4NmEuOTQ3Ljk0NyAwIDAgMC0uMDI2LS4xMmMtLjA3OS40NTUtLjA2NS44NzktLjA4NCAxLjI5OC0uMDIzLjUyOC0uMDA4IDEuMDU3LS4wMDcgMS41ODQgMCAuMjcuMDg2LjM4OC4zMzUuNDgzLjM1OS4xMzUuNzExLjI5NSAxLjExNC4yNjIuMTQxLS4wMTIuMjc2LjA2Mi40MDIuMTI5LjAzMi4wMTcuMDczLjAzMy4wNjkuMDczLS4wMDQuMDQzLS4wNDkuMDQ3LS4wODQuMDQ1LS42NTctLjAxOS0xLjMxNy4wNjUtMS45NzItLjAyOC0uMzIzLS4wNDYtLjUzMy0uMjM2LS42MzEtLjU1Mi0uMDk0LS4zMDMtLjExNC0uNjE3LS4xMzctLjkzLS4wNDYtLjYyNi0uMDc4LTEuMjUzLS4xMTYtMS44OGEuMjIyLjIyMiAwIDAgMC0uMDYxLS4xNzEuMjgyLjI4MiAwIDAgMC0uMDMxLjE5M2MtLjAwMi45NTYtLjAwMiAxLjkxMS0uMDAxIDIuODY2IDAgLjM4OC4xMjMuNTc1LjQ5NC43MDguNDgxLjE3Mi45NzYuMjk4IDEuNDcuNDIzLjExLjAyOC4yMjUuMDQ3LjI0Mi4xOTJoLTEuODUyYy0uMDUxLS4wMS0uMTAzLS4wMjItLjE1NS0uMDMtLjcwMS0uMS0xLjAwMS0uMzcyLTEuMTQzLTEuMDQybC0uMDY3LS4zMzEtLjIyNi0xLjEwM2MtLjA2OS4xMi0uMTE4LjI1LS4xNDQuMzg2LS4wODMuMzk5LS4xNTEuODAyLS4yNDMgMS4yLS4xMTMuNDkzLS40NDQuNzYzLS45MzIuODU3bC0uMzMuMDYzSDguNTU4Yy4wNTctLjE3MS4yMTYtLjE4NS4zNTUtLjIyMS40NzYtLjEyNy45Ni0uMjIzIDEuNDE3LS40MDlhLjYwMy42MDMgMCAwIDAgLjM5Ny0uNTIxYy4wNTgtLjQzNS4wMDItLjg2NS0uMDEzLTEuMjk2YTEuNTI4IDEuNTI4IDAgMCAwLS4wNzgtLjMxNS40MDUuNDA1IDAgMCAwLS4wNzEuMjA3Yy0uMDI2LjI5Ni0uMDQ5LjU5MS0uMDc1Ljg4Ni0uMDM4LjQzMi0uMjczLjcxNi0uNjc5LjgxYTEuNzAyIDEuNzAyIDAgMCAxLS4zNy4wNDVjLS41NTcuMDAzLTEuMTE1LS4wMDEtMS42NzMtLjAwNS0uMDQ4IDAtLjEwOS4wMTktLjE0OC0uMDY1LjE3OC0uMTAzLjM3Ny0uMTY4LjU4Mi0uMTg3YTUuNjcgNS42NyAwIDAgMCAuOTM5LS4xOTNjLjQyLS4xMTQuNTIyLS4yNDkuNTEyLS42ODctLjAyMy0uOTMxLS4wOTEtMS44Ni0uMDY5LTIuNzkxLjAwNC0uMTg0LjAwMS0uMzY4LjAwMS0uNTUxYTIuMzg3IDIuMzg3IDAgMCAwLS4wNS4zODUgNDAuMjk5IDQwLjI5OSAwIDAgMS0uMTg2IDIuNjIzYy0uMDUyLjUxMy0uMjk2Ljc0OC0uODA0LjgwNS0uNDQ2LjA1MS0uODg5LjAwMi0xLjMzMi0uMDItLjEwOC0uMDA2LS4yMzQuMDEyLS4zMzktLjA2NC4wNDMtLjA2Ni4xMDYtLjA3LjE2LS4wODcuMzYyLS4xMTUuNzI1LS4yMjQgMS4wODYtLjM0NC4yNDYtLjA4MS4zNS0uMjM1LjM1NS0uNDkyYTIuMjQxIDIuMjQxIDAgMCAwLS4wMDMtLjIzMiA0NS4zMTUgNDUuMzE1IDAgMCAxLS4xMDUtMi4xNDkgNS40ODcgNS40ODcgMCAwIDAtLjAzNS0uNDc4Yy0uMDI0LS4xODgtLjEzMS0uMjg3LS4yOTUtLjI1OC0uNTA1LjA5Mi0uOTktLjAwNi0xLjQ3My0uMTM5LS4wNTktLjAxNi0uMTM0LS4wMDctLjE3OC0uMDg4YS45ODYuOTg2IDAgMCAxIC4yODUtLjA5Yy4yNTUtLjA1Mi41MDctLjEyMS43NTMtLjIwOC4zMTItLjExMi41NjQtLjM0Ny42OTUtLjY1MS4wODktLjIwMy4wNTYtLjMxNy0uMTEyLS4zOTgtMS40MTgtLjY4My0yLjUxMi0xLjczLTMuMzkxLTMuMDE3YTguMTUyIDguMTUyIDAgMCAxLTEuMTIzLTIuNDQ3Yy0uMDY3LS4yNDYtLjE1Ni0uMy0uMzgzLS4yNi0uMzA2LjA1My0uNDAxLjAwNi0uNTM1LS4yNzN2LTMuNDljLjE0NC0uMzAzLjIwNS0uMzQxLjUzNC0uMzI5LjIzNS4wMS4yNDctLjAwNC4zMDktLjI0Mi4zOTYtMS41MDggMS4wODItMi44NjEgMi4xNzEtMy45ODhDNi45IDEuNDIgOC41MjMuNjMxIDEwLjM0LjIwM2MuNDU2LS4xMDguOTIyLS4xNSAxLjM4Ny0uMjAzaC44NTRabTcuOTc0IDguOTQ4YTcuMzQgNy4zNCAwIDAgMC0uMDQ4LS45MzggOC4zNTMgOC4zNTMgMCAwIDAtLjA5OS0uNjVjLS41OTgtMi45NjQtMi4zNDQtNS4wMi01LjA1MS02LjI2OC0xLjU1My0uNzE1LTMuMjEtLjgzNS00Ljg3OC0uNTExLTMuMjQ4LjYzMy01LjM5NiAyLjU4My02LjUzOSA1LjY1Mi0uNDM2IDEuMTczLS40OTUgMi40MDYtLjM3IDMuNjUuMDg3LjkzNS4zMzkgMS44NDYuNzQ1IDIuNjk0LjU4NSAxLjIxMyAxLjQ0NCAyLjIwNyAyLjQ3NyAzLjA1OC4zNDMuMjg2LjcxOS41MjggMS4xMjEuNzE5LjIzNS4xMTEuMjQ3LjEwNS4yNDUtLjE0Ni4wMDYtLjE2LjAwMy0uMzItLjAwOS0uNDgtLjEyNS0xLjAyLS4xNDItMi4wNDUtLjE2OS0zLjA2OWEuMzkyLjM5MiAwIDAgMC0uMTg0LS4zNTNjLS4zODUtLjI2OC0uNzEzLS41OTItLjkyMS0xLjAxOS0uNDc0LS45Ny0uMzcyLTIuMzYxLjgxMy0zLjIxNS4xMzYtLjA5Ny4yMTctLjE5LjE5OC0uMzczYTEuNzI0IDEuNzI0IDAgMCAxIC4wMzEtLjQ0MmMuMTc3LTEuMTg3Ljc0OC0yLjEzOCAxLjcyMi0yLjg0LjY4LS40OTIgMS40NDItLjc3MiAyLjI4Ni0uNzgyLjQ4My0uMDA3Ljk1My4xMSAxLjQxNC4yNDQgMS42MDkuNDY3IDIuODQ2IDIuMDcgMi44NDUgMy42OTdhLjY0LjY0IDAgMCAwIC4yNjguNTY1Yy40NjMuMzcxLjgyMS44My45NDMgMS40MjYuMjIgMS4wNzctLjA4MyAxLjk4Mi0uOTc5IDIuNjM0LS4yNjYuMTk0LS4zNDcuNDA2LS4zMzMuNjk4LjAwMi4wNDcgMCAuMDk1LS4wMDIuMTQybC0uMDYyIDEuNDM5Yy0uMDI1LjU4Ni0uMTM4IDEuMTY1LS4xMTcgMS43NTQuMDA4LjIyMy4wMDYuMjI2LjIwMS4xMjhhNy40NiA3LjQ2IDAgMCAwIDIuMzkzLTEuOTAzYzEuMzItMS41NzcgMi4wNzQtMy4zNzIgMi4wNTktNS41MTFaTTkuMTE3IDEyLjEwMmMxLjQ4OS4wMjEgMi40NDMtMS41NzggMS43MTYtMi44NzlhMS45MzcgMS45MzcgMCAwIDAtMS42OTktLjk5MWMtMS4wOTQtLjAwNC0xLjk1NC44MjItMS45NTggMS44ODEtLjAwNSAxLjE0OC44MTMgMS45ODUgMS45NDEgMS45ODlabTUuNzk0IDBjMS4xMDEuMDAyIDEuOTM1LS44MjMgMS45MzUtMS45MTcgMC0xLjA5MS0uODQ2LTEuOTQ5LTEuOTItMS45NDctMS4wNjQuMDAzLTEuOTQuODY2LTEuOTQzIDEuOTE1LS4wMDMgMS4xMDUuODMxIDEuOTQ4IDEuOTI4IDEuOTQ5Wm0tMS40NzIgMS45MzdjLS4yMDguMTI4LS40MDcuMjc3LS42My4zODQtLjUzNi4yNTctMS4wNjMuMjU3LTEuNTc5LS4wNDgtLjE1OC0uMDk0LS4zMDgtLjIwMS0uNDY0LS4yOTgtLjA0Ny0uMDI4LS4wOTItLjEwMy0uMTUtLjA2Mi0uMDQ0LjAzLS4wMS4xLS4wMDEuMTUxLjAzNy4xNzkuMDY0LjM2Mi4wODIuNTQ0LjAyNy41NjUuMjkzLjk5Mi43NDIgMS4zMWEuOTg0Ljk4NCAwIDAgMCAuNzkxLjE4NmMuNTY1LS4xMTkgMS4wMjUtLjYxNCAxLjEyNC0xLjIxOC4wNDMtLjI2Ni4wMDUtLjU0NC4xMDktLjgwM2EuMTMzLjEzMyAwIDAgMC0uMDI0LS4xNDZabS04Ljc4LTQuOTJjLS4wMTItMS4xMDIuMTQzLTIuMDU1LjU0LTIuOTYxLjYzMy0xLjQ0MyAxLjY0Mi0yLjU1MyAyLjk4LTMuMzc0YS4zNzguMzc4IDAgMCAxIC40NTkuMDY3Yy4wNi4wNi4wMzYuMTE4LjAxLjE3OGExLjA5IDEuMDkgMCAwIDEtLjQ4LjUxYy0xLjA3OS42MzktMS44MjkgMS41NzEtMi4zNTcgMi42ODhhNi4zMjUgNi4zMjUgMCAwIDAtLjYxOCAyLjk4NmMuMDU1IDEuMzA5LjQzOSAyLjUxNiAxLjIxMyAzLjU4OC4wODguMTA0LjE0OC4yMy4xNzMuMzY1LjAxLjA4LjA1OS4xNjgtLjAzMS4yMjhhLjMxMi4zMTIgMCAwIDEtLjI4OC4wNDEuNTAyLjUwMiAwIDAgMS0uMjM0LS4xODVjLS43Mi0uOTc5LTEuMTkzLTIuMDU2LTEuMzMxLTMuMjczLS4wMzYtLjMyNi0uMDA0LS42NTMtLjAzNi0uODU4Wk04Ljk0IDIuMzRhLjM3My4zNzMgMCAwIDEgLjM3OC0uMzgyYy4yMTEuMDAxLjQwOS4yMjYuNDE2LjQ3My4wMDQuMTM4LS4zMDkuMzktLjQ3Ni4zODYtLjE4OS0uMDA1LS4zMTgtLjItLjMxOC0uNDc3Wm0tLjQ2NSA3LjQ4YS42MDkuNjA5IDAgMCAxIC41ODYtLjYzMWMuMzgtLjAwMy42NzEuMjcxLjY3NS42MzMuMDA0LjM1Ni0uMjcuNjIyLS42MzkuNjIxLS4zOC0uMDAyLS42MjEtLjI0MS0uNjIyLS42MjNabTYuNDk2LjYyM2MtLjM4MS0uMDAyLS42MjUtLjI1NS0uNjIxLS42NDZhLjYzNS42MzUgMCAwIDEgLjU5Ni0uNjEzLjY1Ni42NTYgMCAwIDEgLjY2OS42NDNjLjAwMS4zNTQtLjI3NS42MTgtLjY0NC42MTZaIi8+PC9zdmc+;rounded=0;strokeColor=#326ce5;strokeWidth=1;fontColor=#000000;imageBorder=none;perimeterSpacing=0;" vertex="1" parent="4WFZzYb8yz6Z_idM63du-51">
          <mxGeometry x="4.333333333333334" y="4.333333333333334" width="56.333333333333336" height="56.333333333333336" as="geometry" />
        </mxCell>
        <mxCell id="4WFZzYb8yz6Z_idM63du-54" style="edgeStyle=orthogonalEdgeStyle;rounded=0;orthogonalLoop=1;jettySize=auto;html=1;exitX=1;exitY=0.5;exitDx=0;exitDy=0;exitPerimeter=0;entryX=0;entryY=0.5;entryDx=0;entryDy=0;entryPerimeter=0;" edge="1" parent="1" source="4WFZzYb8yz6Z_idM63du-55" target="4WFZzYb8yz6Z_idM63du-40">
          <mxGeometry relative="1" as="geometry" />
        </mxCell>
        <mxCell id="4WFZzYb8yz6Z_idM63du-55" value="EKS API Server&amp;nbsp;" style="sketch=0;points=[[0,0,0],[0.25,0,0],[0.5,0,0],[0.75,0,0],[1,0,0],[0,1,0],[0.25,1,0],[0.5,1,0],[0.75,1,0],[1,1,0],[0,0.25,0],[0,0.5,0],[0,0.75,0],[1,0.25,0],[1,0.5,0],[1,0.75,0]];outlineConnect=0;fontColor=#232F3E;gradientColor=#F78E04;gradientDirection=north;fillColor=#D05C17;strokeColor=#ffffff;dashed=0;verticalLabelPosition=bottom;verticalAlign=top;align=center;html=1;fontSize=12;fontStyle=0;aspect=fixed;shape=mxgraph.aws4.resourceIcon;resIcon=mxgraph.aws4.eks;" vertex="1" parent="1">
          <mxGeometry x="630" y="-1790" width="65" height="65" as="geometry" />
        </mxCell>
        <mxCell id="4WFZzYb8yz6Z_idM63du-56" style="edgeStyle=orthogonalEdgeStyle;rounded=0;orthogonalLoop=1;jettySize=auto;html=1;exitX=0;exitY=0.5;exitDx=0;exitDy=0;entryX=1;entryY=0.5;entryDx=0;entryDy=0;" edge="1" parent="1" source="4WFZzYb8yz6Z_idM63du-52" target="4WFZzYb8yz6Z_idM63du-42">
          <mxGeometry relative="1" as="geometry" />
        </mxCell>
        <mxCell id="4WFZzYb8yz6Z_idM63du-57" value="Pull Changes" style="text;html=1;strokeColor=none;fillColor=none;align=center;verticalAlign=middle;whiteSpace=wrap;rounded=0;" vertex="1" parent="1">
          <mxGeometry x="233" y="-1790" width="60" height="30" as="geometry" />
        </mxCell>
        <mxCell id="4WFZzYb8yz6Z_idM63du-58" style="edgeStyle=orthogonalEdgeStyle;rounded=0;orthogonalLoop=1;jettySize=auto;html=1;exitX=1;exitY=0.5;exitDx=0;exitDy=0;entryX=0;entryY=0.5;entryDx=0;entryDy=0;entryPerimeter=0;" edge="1" parent="1" source="4WFZzYb8yz6Z_idM63du-52" target="4WFZzYb8yz6Z_idM63du-55">
          <mxGeometry relative="1" as="geometry" />
        </mxCell>
        <mxCell id="4WFZzYb8yz6Z_idM63du-59" value="Synchronize Changes" style="text;html=1;strokeColor=none;fillColor=none;align=center;verticalAlign=middle;whiteSpace=wrap;rounded=0;" vertex="1" parent="1">
          <mxGeometry x="470" y="-1800" width="80" height="50" as="geometry" />
        </mxCell>
        <mxCell id="4WFZzYb8yz6Z_idM63du-70" value="" style="group" vertex="1" connectable="0" parent="1">
          <mxGeometry x="825" y="-1855" width="195" height="195" as="geometry" />
        </mxCell>
        <mxCell id="4WFZzYb8yz6Z_idM63du-40" value="" style="points=[[0.25,0,0],[0.5,0,0],[0.75,0,0],[1,0.25,0],[1,0.5,0],[1,0.75,0],[0.75,1,0],[0.5,1,0],[0.25,1,0],[0,0.75,0],[0,0.5,0],[0,0.25,0]];rounded=0;arcSize=10;strokeColor=#326ce5;fillColor=none;gradientColor=none;strokeWidth=1;whiteSpace=wrap;fontColor=#000000;container=0;" vertex="1" parent="4WFZzYb8yz6Z_idM63du-70">
          <mxGeometry width="195" height="195" as="geometry" />
        </mxCell>
        <mxCell id="4WFZzYb8yz6Z_idM63du-64" value="" style="sketch=0;aspect=fixed;html=1;points=[];align=center;image;fontSize=12;image=img/lib/mscae/Kubernetes.svg;rounded=0;strokeColor=#000000;strokeWidth=1;fontColor=#000000;container=0;" vertex="1" parent="4WFZzYb8yz6Z_idM63du-70">
          <mxGeometry x="3" y="3" width="37" height="35.52" as="geometry" />
        </mxCell>
        <mxCell id="4WFZzYb8yz6Z_idM63du-65" value="EKS Kubernetes Cluster" style="text;html=1;strokeColor=none;fillColor=none;align=left;verticalAlign=middle;whiteSpace=wrap;rounded=0;strokeWidth=1;fontColor=#000000;container=0;" vertex="1" parent="4WFZzYb8yz6Z_idM63du-70">
          <mxGeometry x="43" y="3" width="150" height="30" as="geometry" />
        </mxCell>
        <mxCell id="4WFZzYb8yz6Z_idM63du-67" value="" style="shape=image;verticalLabelPosition=bottom;verticalAlign=top;imageAspect=0;aspect=fixed;image=data:image/svg+xml,PHN2ZyB4bWxuczpkYz0iaHR0cDovL3B1cmwub3JnL2RjL2VsZW1lbnRzLzEuMS8iIHhtbG5zOmNjPSJodHRwOi8vY3JlYXRpdmVjb21tb25zLm9yZy9ucyMiIHhtbG5zOnJkZj0iaHR0cDovL3d3dy53My5vcmcvMTk5OS8wMi8yMi1yZGYtc3ludGF4LW5zIyIgeG1sbnM6c3ZnPSJodHRwOi8vd3d3LnczLm9yZy8yMDAwL3N2ZyIgeG1sbnM9Imh0dHA6Ly93d3cudzMub3JnLzIwMDAvc3ZnIiB4bWxuczpzb2RpcG9kaT0iaHR0cDovL3NvZGlwb2RpLnNvdXJjZWZvcmdlLm5ldC9EVEQvc29kaXBvZGktMC5kdGQiIHhtbG5zOmlua3NjYXBlPSJodHRwOi8vd3d3Lmlua3NjYXBlLm9yZy9uYW1lc3BhY2VzL2lua3NjYXBlIiB3aWR0aD0iMTguMDM1MzM0bW0iIGhlaWdodD0iMTcuNTAwMzc4bW0iIHZpZXdCb3g9IjAgMCAxOC4wMzUzMzQgMTcuNTAwMzc4IiB2ZXJzaW9uPSIxLjEiIGlkPSJzdmcxMzgyNiIgaW5rc2NhcGU6dmVyc2lvbj0iMC45MSByMTM3MjUiIHNvZGlwb2RpOmRvY25hbWU9InN2Yy5zdmciPiYjeGE7ICA8ZGVmcyBpZD0iZGVmczEzODIwIi8+JiN4YTsgIDxzb2RpcG9kaTpuYW1lZHZpZXcgaWQ9ImJhc2UiIHBhZ2Vjb2xvcj0iI2ZmZmZmZiIgYm9yZGVyY29sb3I9IiM2NjY2NjYiIGJvcmRlcm9wYWNpdHk9IjEuMCIgaW5rc2NhcGU6cGFnZW9wYWNpdHk9IjAuMCIgaW5rc2NhcGU6cGFnZXNoYWRvdz0iMiIgaW5rc2NhcGU6em9vbT0iOCIgaW5rc2NhcGU6Y3g9IjE2Ljg0NzQ5NiIgaW5rc2NhcGU6Y3k9IjI4Ljc1MjIzOSIgaW5rc2NhcGU6ZG9jdW1lbnQtdW5pdHM9Im1tIiBpbmtzY2FwZTpjdXJyZW50LWxheWVyPSJsYXllcjEiIHNob3dncmlkPSJmYWxzZSIgaW5rc2NhcGU6d2luZG93LXdpZHRoPSIxNDQwIiBpbmtzY2FwZTp3aW5kb3ctaGVpZ2h0PSI3NzUiIGlua3NjYXBlOndpbmRvdy14PSIwIiBpbmtzY2FwZTp3aW5kb3cteT0iMSIgaW5rc2NhcGU6d2luZG93LW1heGltaXplZD0iMSIgZml0LW1hcmdpbi10b3A9IjAiIGZpdC1tYXJnaW4tbGVmdD0iMCIgZml0LW1hcmdpbi1yaWdodD0iMCIgZml0LW1hcmdpbi1ib3R0b209IjAiLz4mI3hhOyAgJiN4YTsgIDxnIGlua3NjYXBlOmxhYmVsPSJDYWxxdWUgMSIgaW5rc2NhcGU6Z3JvdXBtb2RlPSJsYXllciIgaWQ9ImxheWVyMSIgdHJhbnNmb3JtPSJ0cmFuc2xhdGUoLTAuOTkyNjI2MzgsLTEuMTc0MTgxKSI+JiN4YTsgICAgPGcgaWQ9Imc3MCIgdHJhbnNmb3JtPSJtYXRyaXgoMS4wMTQ4ODg3LDAsMCwxLjAxNDg4ODcsMTYuOTAyMTQ2LC0yLjY5ODcyNikiPiYjeGE7ICAgICAgPHBhdGggaW5rc2NhcGU6ZXhwb3J0LXlkcGk9IjI1MC41NSIgaW5rc2NhcGU6ZXhwb3J0LXhkcGk9IjI1MC41NSIgaW5rc2NhcGU6ZXhwb3J0LWZpbGVuYW1lPSJuZXcucG5nIiBpbmtzY2FwZTpjb25uZWN0b3ItY3VydmF0dXJlPSIwIiBpZD0icGF0aDMwNTUiIGQ9Im0gLTYuODQ5MjAxNSw0LjI3MjQ2NjggYSAxLjExOTEyNTUsMS4xMDk5NjcxIDAgMCAwIC0wLjQyODg4MTgsMC4xMDg1MzAzIGwgLTUuODUyNDAzNywyLjc5NjMzOTQgYSAxLjExOTEyNTUsMS4xMDk5NjcxIDAgMCAwIC0wLjYwNTUyNCwwLjc1Mjk3NTkgbCAtMS40NDM4MjgsNi4yODEyODQ2IGEgMS4xMTkxMjU1LDEuMTA5OTY3MSAwIDAgMCAwLjE1MTk0MywwLjg1MTAyOCAxLjExOTEyNTUsMS4xMDk5NjcxIDAgMCAwIDAuMDYzNjIsMC4wODgzMiBsIDQuMDUwOCw1LjAzNjU1NSBhIDEuMTE5MTI1NSwxLjEwOTk2NzEgMCAwIDAgMC44NzQ5NzksMC40MTc2NTQgbCA2LjQ5NjEwMTEsLTAuMDAxNSBhIDEuMTE5MTI1NSwxLjEwOTk2NzEgMCAwIDAgMC44NzQ5Nzg4LC0wLjQxNjkwNiBMIDEuMzgxODg3MiwxNS4xNDk0NTMgQSAxLjExOTEyNTUsMS4xMDk5NjcxIDAgMCAwIDEuNTk4MTk4NiwxNC4yMTAxMDQgTCAwLjE1MjEyNjU3LDcuOTI4ODE1NCBBIDEuMTE5MTI1NSwxLjEwOTk2NzEgMCAwIDAgLTAuNDUzMzk3OTQsNy4xNzU4Mzk2IEwgLTYuMzA2NTQ5Niw0LjM4MDk5NzEgQSAxLjExOTEyNTUsMS4xMDk5NjcxIDAgMCAwIC02Ljg0OTIwMTUsNC4yNzI0NjY4IFoiIHN0eWxlPSJmaWxsOiMzMjZjZTU7ZmlsbC1vcGFjaXR5OjE7c3Ryb2tlOm5vbmU7c3Ryb2tlLXdpZHRoOjA7c3Ryb2tlLW1pdGVybGltaXQ6NDtzdHJva2UtZGFzaGFycmF5Om5vbmU7c3Ryb2tlLW9wYWNpdHk6MSIvPiYjeGE7ICAgICAgPHBhdGggaWQ9InBhdGgzMDU0LTItOSIgZD0iTSAtNi44NTIzNDM1LDMuODE3NjM3MiBBIDEuMTgxNDMwNCwxLjE3MTc2MiAwIDAgMCAtNy4zMDQ0Mjg0LDMuOTMyOTA0IGwgLTYuMTc4NzQyNiwyLjk1MTI3NTggYSAxLjE4MTQzMDQsMS4xNzE3NjIgMCAwIDAgLTAuNjM5MjA2LDAuNzk0ODkxIGwgLTEuNTIzOTE1LDYuNjMwODI4MiBhIDEuMTgxNDMwNCwxLjE3MTc2MiAwIDAgMCAwLjE2MDE3NSwwLjg5ODkzIDEuMTgxNDMwNCwxLjE3MTc2MiAwIDAgMCAwLjA2NzM2LDAuMDkyODEgbCA0LjI3NjA5NCw1LjMxNzIzNiBhIDEuMTgxNDMwNCwxLjE3MTc2MiAwIDAgMCAwLjkyMzYzLDAuNDQwODU4IGwgNi44NTc2MTg4LC0wLjAwMTUgYSAxLjE4MTQzMDQsMS4xNzE3NjIgMCAwIDAgMC45MjM2MzA4LC0wLjQ0MDExIGwgNC4yNzQ1OTY2LC01LjMxNzk4NSBhIDEuMTgxNDMwNCwxLjE3MTc2MiAwIDAgMCAwLjIyODI4OCwtMC45OTA5OTMgTCAwLjUzODk0NDM5LDcuNjc3NTczOCBBIDEuMTgxNDMwNCwxLjE3MTc2MiAwIDAgMCAtMC4xMDAyNjEwMSw2Ljg4MzQzMTMgTCAtNi4yNzkwMDM3LDMuOTMyMTU1NSBBIDEuMTgxNDMwNCwxLjE3MTc2MiAwIDAgMCAtNi44NTIzNDM1LDMuODE3NjM3MiBaIG0gMC4wMDI5OSwwLjQ1NTA3ODkgYSAxLjExOTEyNTUsMS4xMDk5NjcxIDAgMCAxIDAuNTQyNjUxNywwLjEwODUzMDMgbCA1Ljg1MzE1MTY5LDIuNzk0ODQyNSBBIDEuMTE5MTI1NSwxLjEwOTk2NzEgMCAwIDEgMC4xNTE5NzgxMSw3LjkyOTA2NDggTCAxLjU5ODA1MSwxNC4yMTAzNSBhIDEuMTE5MTI1NSwxLjEwOTk2NzEgMCAwIDEgLTAuMjE2MzEyMywwLjkzOTM0OCBsIC00LjA0OTMwMzIsNS4wMzczMDQgYSAxLjExOTEyNTUsMS4xMDk5NjcxIDAgMCAxIC0wLjg3NDk3ODksMC40MTY5MDYgbCAtNi40OTYxMDA2LDAuMDAxNSBhIDEuMTE5MTI1NSwxLjEwOTk2NzEgMCAwIDEgLTAuODc0OTc5LC0wLjQxNzY1MiBsIC00LjA1MDgsLTUuMDM2NTU0IGEgMS4xMTkxMjU1LDEuMTA5OTY3MSAwIDAgMSAtMC4wNjM2MiwtMC4wODgzMiAxLjExOTEyNTUsMS4xMDk5NjcxIDAgMCAxIC0wLjE1MTk0MiwtMC44NTEwMjggbCAxLjQ0MzgyNywtNi4yODEyODUzIGEgMS4xMTkxMjU1LDEuMTA5OTY3MSAwIDAgMSAwLjYwNTUyNCwtMC43NTI5NzU4IGwgNS44NTI0MDM2LC0yLjc5NjMzOTUgYSAxLjExOTEyNTUsMS4xMDk5NjcxIDAgMCAxIDAuNDI4ODgxOSwtMC4xMDg1MzAzIHoiIHN0eWxlPSJjb2xvcjojMDAwMDAwO2ZvbnQtc3R5bGU6bm9ybWFsO2ZvbnQtdmFyaWFudDpub3JtYWw7Zm9udC13ZWlnaHQ6bm9ybWFsO2ZvbnQtc3RyZXRjaDpub3JtYWw7Zm9udC1zaXplOm1lZGl1bTtsaW5lLWhlaWdodDpub3JtYWw7Zm9udC1mYW1pbHk6U2FuczstaW5rc2NhcGUtZm9udC1zcGVjaWZpY2F0aW9uOlNhbnM7dGV4dC1pbmRlbnQ6MDt0ZXh0LWFsaWduOnN0YXJ0O3RleHQtZGVjb3JhdGlvbjpub25lO3RleHQtZGVjb3JhdGlvbi1saW5lOm5vbmU7bGV0dGVyLXNwYWNpbmc6bm9ybWFsO3dvcmQtc3BhY2luZzpub3JtYWw7dGV4dC10cmFuc2Zvcm06bm9uZTt3cml0aW5nLW1vZGU6bHItdGI7ZGlyZWN0aW9uOmx0cjtiYXNlbGluZS1zaGlmdDpiYXNlbGluZTt0ZXh0LWFuY2hvcjpzdGFydDtkaXNwbGF5OmlubGluZTtvdmVyZmxvdzp2aXNpYmxlO3Zpc2liaWxpdHk6dmlzaWJsZTtmaWxsOiNmZmZmZmY7ZmlsbC1vcGFjaXR5OjE7ZmlsbC1ydWxlOm5vbnplcm87c3Ryb2tlOm5vbmU7c3Ryb2tlLXdpZHRoOjA7c3Ryb2tlLW1pdGVybGltaXQ6NDtzdHJva2UtZGFzaGFycmF5Om5vbmU7bWFya2VyOm5vbmU7ZW5hYmxlLWJhY2tncm91bmQ6YWNjdW11bGF0ZSIgaW5rc2NhcGU6Y29ubmVjdG9yLWN1cnZhdHVyZT0iMCIvPiYjeGE7ICAgIDwvZz4mI3hhOyAgICA8dGV4dCBpZD0idGV4dDIwNjYiIHk9IjE2LjgxMTc3NSIgeD0iOS45Nzk5NzY3IiBzdHlsZT0iZm9udC1zdHlsZTpub3JtYWw7Zm9udC13ZWlnaHQ6bm9ybWFsO2ZvbnQtc2l6ZToxMC41ODMzMzMwMnB4O2xpbmUtaGVpZ2h0OjYuNjE0NTgzNDlweDtmb250LWZhbWlseTpTYW5zO2xldHRlci1zcGFjaW5nOjBweDt3b3JkLXNwYWNpbmc6MHB4O2ZpbGw6I2ZmZmZmZjtmaWxsLW9wYWNpdHk6MTtzdHJva2U6bm9uZTtzdHJva2Utd2lkdGg6MC4yNjQ1ODMzMnB4O3N0cm9rZS1saW5lY2FwOmJ1dHQ7c3Ryb2tlLWxpbmVqb2luOm1pdGVyO3N0cm9rZS1vcGFjaXR5OjEiIHhtbDpzcGFjZT0icHJlc2VydmUiPjx0c3BhbiBzdHlsZT0iZm9udC1zdHlsZTpub3JtYWw7Zm9udC12YXJpYW50Om5vcm1hbDtmb250LXdlaWdodDpub3JtYWw7Zm9udC1zdHJldGNoOm5vcm1hbDtmb250LXNpemU6Mi44MjIyMjIyM3B4O2ZvbnQtZmFtaWx5OkFyaWFsOy1pbmtzY2FwZS1mb250LXNwZWNpZmljYXRpb246J0FyaWFsLCBOb3JtYWwnO3RleHQtYWxpZ246Y2VudGVyO3dyaXRpbmctbW9kZTpsci10Yjt0ZXh0LWFuY2hvcjptaWRkbGU7ZmlsbDojZmZmZmZmO2ZpbGwtb3BhY2l0eToxO3N0cm9rZS13aWR0aDowLjI2NDU4MzMycHgiIHk9IjE2LjgxMTc3NSIgeD0iOS45Nzk5NzY3IiBpZD0idHNwYW4yMDY0IiBzb2RpcG9kaTpyb2xlPSJsaW5lIj5zdmM8L3RzcGFuPjwvdGV4dD4mI3hhOyAgICA8ZyBpZD0iZzMzNDUiIHRyYW5zZm9ybT0idHJhbnNsYXRlKDAuMDkyMzg4MDEsMCkiPiYjeGE7ICAgICAgPHBhdGggc3R5bGU9ImZpbGw6I2ZmZmZmZjtmaWxsLXJ1bGU6ZXZlbm9kZDtzdHJva2U6bm9uZTtzdHJva2Utd2lkdGg6MC4yNjQ1ODMzMjtzdHJva2UtbGluZWNhcDpzcXVhcmU7c3Ryb2tlLW1pdGVybGltaXQ6MTAiIGlua3NjYXBlOmNvbm5lY3Rvci1jdXJ2YXR1cmU9IjAiIGQ9Im0gNC40OTQ5ODk2LDExLjI2MDgyNiAyLjkwODMzMTEsMCAwLDIuMDQxNjY3IC0yLjkwODMzMTEsMCB6IiBpZD0icGF0aDk2NCIvPiYjeGE7ICAgICAgPHBhdGggc3R5bGU9ImZpbGw6I2ZmZmZmZjtmaWxsLXJ1bGU6ZXZlbm9kZDtzdHJva2U6bm9uZTtzdHJva2Utd2lkdGg6MC4yNjQ1ODMzMjtzdHJva2UtbGluZWNhcDpzcXVhcmU7c3Ryb2tlLW1pdGVybGltaXQ6MTAiIGlua3NjYXBlOmNvbm5lY3Rvci1jdXJ2YXR1cmU9IjAiIGQ9Im0gOC40NjM3NDA3LDExLjI2MDgyNiAyLjkwODMzMDMsMCAwLDIuMDQxNjY3IC0yLjkwODMzMDMsMCB6IiBpZD0icGF0aDk2NiIvPiYjeGE7ICAgICAgPHBhdGggc3R5bGU9ImZpbGw6I2ZmZmZmZjtmaWxsLXJ1bGU6ZXZlbm9kZDtzdHJva2U6bm9uZTtzdHJva2Utd2lkdGg6MC4yNjQ1ODMzMjtzdHJva2UtbGluZWNhcDpzcXVhcmU7c3Ryb2tlLW1pdGVybGltaXQ6MTAiIGlua3NjYXBlOmNvbm5lY3Rvci1jdXJ2YXR1cmU9IjAiIGQ9Im0gMTIuNDMyNDkxLDExLjI2MDgyNiAyLjkwODMzLDAgMCwyLjA0MTY2NyAtMi45MDgzMywwIHoiIGlkPSJwYXRoOTY4Ii8+JiN4YTsgICAgICA8cGF0aCBzdHlsZT0iZmlsbDojZmZmZmZmO2ZpbGwtcnVsZTpldmVub2RkO3N0cm9rZTpub25lO3N0cm9rZS13aWR0aDowLjI2NDU4MzMyO3N0cm9rZS1saW5lY2FwOnNxdWFyZTtzdHJva2UtbWl0ZXJsaW1pdDoxMCIgaW5rc2NhcGU6Y29ubmVjdG9yLWN1cnZhdHVyZT0iMCIgZD0ibSA3LjYxMzc0MDcsNS4yMDgyOTIxIDQuNjA4MzMwMywwIDAsMi4wNDE2NjcgLTQuNjA4MzMwMywwIHoiIGlkPSJwYXRoOTcwIi8+JiN4YTsgICAgICA8cGF0aCBzdHlsZT0iZmlsbDpub25lO2ZpbGwtcnVsZTpldmVub2RkO3N0cm9rZTojZmZmZmZmO3N0cm9rZS13aWR0aDowLjUyOTE2NjY0O3N0cm9rZS1saW5lY2FwOmJ1dHQ7c3Ryb2tlLWxpbmVqb2luOnJvdW5kO3N0cm9rZS1taXRlcmxpbWl0OjEwO3N0cm9rZS1vcGFjaXR5OjEiIGlua3NjYXBlOmNvbm5lY3Rvci1jdXJ2YXR1cmU9IjAiIGQ9Im0gOS45MTc5MDA1LDcuMjQ5OTYwMSAwLDIuMDA1NDQ5IC0zLjk2NjY3MSwwIDAsMi4wMDI4ODU5IiBpZD0icGF0aDk3OCIvPiYjeGE7ICAgICAgPHBhdGggc3R5bGU9ImZpbGw6bm9uZTtmaWxsLXJ1bGU6ZXZlbm9kZDtzdHJva2U6I2ZmZmZmZjtzdHJva2Utd2lkdGg6MC41Mjg5OTk5ODtzdHJva2UtbGluZWNhcDpidXR0O3N0cm9rZS1saW5lam9pbjpyb3VuZDtzdHJva2UtbWl0ZXJsaW1pdDoxMDtzdHJva2UtZGFzaGFycmF5Om5vbmU7c3Ryb2tlLW9wYWNpdHk6MSIgaW5rc2NhcGU6Y29ubmVjdG9yLWN1cnZhdHVyZT0iMCIgZD0ibSA5LjkxNzkwMDUsNy4yNDk5NjAxIDAsMi4wMDU0NDkgMy45NjY2NzA1LDAgMCwyLjAwMjg4NTkiIGlkPSJwYXRoOTg2Ii8+JiN4YTsgICAgICA8cGF0aCBzdHlsZT0iZmlsbDpub25lO2ZpbGwtcnVsZTpldmVub2RkO3N0cm9rZTojZmZmZmZmO3N0cm9rZS13aWR0aDowLjUyOTE2NjY0O3N0cm9rZS1saW5lY2FwOmJ1dHQ7c3Ryb2tlLWxpbmVqb2luOnJvdW5kO3N0cm9rZS1taXRlcmxpbWl0OjEwO3N0cm9rZS1vcGFjaXR5OjEiIGlua3NjYXBlOmNvbm5lY3Rvci1jdXJ2YXR1cmU9IjAiIGQ9Im0gOS45MDk1NTM4LDcuMjUxMjI1MSAwLDIuMDA1NDQ5IDAuMDE2NywwIDAsMi4wMDI4ODU5IiBpZD0icGF0aDk4MiIvPiYjeGE7ICAgIDwvZz4mI3hhOyAgPC9nPiYjeGE7PC9zdmc+;strokeColor=#ef7b4d;" vertex="1" parent="4WFZzYb8yz6Z_idM63du-70">
          <mxGeometry x="23" y="120" width="65" height="65" as="geometry" />
        </mxCell>
        <mxCell id="4WFZzYb8yz6Z_idM63du-69" value="" style="shape=image;verticalLabelPosition=bottom;verticalAlign=top;imageAspect=0;aspect=fixed;image=data:image/svg+xml,PHN2ZyB4bWxuczpkYz0iaHR0cDovL3B1cmwub3JnL2RjL2VsZW1lbnRzLzEuMS8iIHhtbG5zOmNjPSJodHRwOi8vY3JlYXRpdmVjb21tb25zLm9yZy9ucyMiIHhtbG5zOnJkZj0iaHR0cDovL3d3dy53My5vcmcvMTk5OS8wMi8yMi1yZGYtc3ludGF4LW5zIyIgeG1sbnM6c3ZnPSJodHRwOi8vd3d3LnczLm9yZy8yMDAwL3N2ZyIgeG1sbnM9Imh0dHA6Ly93d3cudzMub3JnLzIwMDAvc3ZnIiB4bWxuczpzb2RpcG9kaT0iaHR0cDovL3NvZGlwb2RpLnNvdXJjZWZvcmdlLm5ldC9EVEQvc29kaXBvZGktMC5kdGQiIHhtbG5zOmlua3NjYXBlPSJodHRwOi8vd3d3Lmlua3NjYXBlLm9yZy9uYW1lc3BhY2VzL2lua3NjYXBlIiB3aWR0aD0iMTguMDM1MzM0bW0iIGhlaWdodD0iMTcuNTAwMzc4bW0iIHZpZXdCb3g9IjAgMCAxOC4wMzUzMzQgMTcuNTAwMzc4IiB2ZXJzaW9uPSIxLjEiIGlkPSJzdmcxMzgyNiIgaW5rc2NhcGU6dmVyc2lvbj0iMC45MSByMTM3MjUiIHNvZGlwb2RpOmRvY25hbWU9ImRlcGxveS5zdmciPiYjeGE7ICA8ZGVmcyBpZD0iZGVmczEzODIwIi8+JiN4YTsgIDxzb2RpcG9kaTpuYW1lZHZpZXcgaWQ9ImJhc2UiIHBhZ2Vjb2xvcj0iI2ZmZmZmZiIgYm9yZGVyY29sb3I9IiM2NjY2NjYiIGJvcmRlcm9wYWNpdHk9IjEuMCIgaW5rc2NhcGU6cGFnZW9wYWNpdHk9IjAuMCIgaW5rc2NhcGU6cGFnZXNoYWRvdz0iMiIgaW5rc2NhcGU6em9vbT0iOCIgaW5rc2NhcGU6Y3g9IjYuODQ3NDk2IiBpbmtzY2FwZTpjeT0iMzMuNzUyMjM5IiBpbmtzY2FwZTpkb2N1bWVudC11bml0cz0ibW0iIGlua3NjYXBlOmN1cnJlbnQtbGF5ZXI9ImxheWVyMSIgc2hvd2dyaWQ9ImZhbHNlIiBpbmtzY2FwZTp3aW5kb3ctd2lkdGg9IjE0NDAiIGlua3NjYXBlOndpbmRvdy1oZWlnaHQ9Ijc3NSIgaW5rc2NhcGU6d2luZG93LXg9IjAiIGlua3NjYXBlOndpbmRvdy15PSIxIiBpbmtzY2FwZTp3aW5kb3ctbWF4aW1pemVkPSIxIiBmaXQtbWFyZ2luLXRvcD0iMCIgZml0LW1hcmdpbi1sZWZ0PSIwIiBmaXQtbWFyZ2luLXJpZ2h0PSIwIiBmaXQtbWFyZ2luLWJvdHRvbT0iMCIvPiYjeGE7ICAmI3hhOyAgPGcgaW5rc2NhcGU6bGFiZWw9IkNhbHF1ZSAxIiBpbmtzY2FwZTpncm91cG1vZGU9ImxheWVyIiBpZD0ibGF5ZXIxIiB0cmFuc2Zvcm09InRyYW5zbGF0ZSgtMC45OTI2MjYzOCwtMS4xNzQxODEpIj4mI3hhOyAgICA8ZyBpZD0iZzcwIiB0cmFuc2Zvcm09Im1hdHJpeCgxLjAxNDg4ODcsMCwwLDEuMDE0ODg4NywxNi45MDIxNDYsLTIuNjk4NzI2KSI+JiN4YTsgICAgICA8cGF0aCBpbmtzY2FwZTpleHBvcnQteWRwaT0iMjUwLjU1IiBpbmtzY2FwZTpleHBvcnQteGRwaT0iMjUwLjU1IiBpbmtzY2FwZTpleHBvcnQtZmlsZW5hbWU9Im5ldy5wbmciIGlua3NjYXBlOmNvbm5lY3Rvci1jdXJ2YXR1cmU9IjAiIGlkPSJwYXRoMzA1NSIgZD0ibSAtNi44NDkyMDE1LDQuMjcyNDY2OCBhIDEuMTE5MTI1NSwxLjEwOTk2NzEgMCAwIDAgLTAuNDI4ODgxOCwwLjEwODUzMDMgbCAtNS44NTI0MDM3LDIuNzk2MzM5NCBhIDEuMTE5MTI1NSwxLjEwOTk2NzEgMCAwIDAgLTAuNjA1NTI0LDAuNzUyOTc1OSBsIC0xLjQ0MzgyOCw2LjI4MTI4NDYgYSAxLjExOTEyNTUsMS4xMDk5NjcxIDAgMCAwIDAuMTUxOTQzLDAuODUxMDI4IDEuMTE5MTI1NSwxLjEwOTk2NzEgMCAwIDAgMC4wNjM2MiwwLjA4ODMyIGwgNC4wNTA4LDUuMDM2NTU1IGEgMS4xMTkxMjU1LDEuMTA5OTY3MSAwIDAgMCAwLjg3NDk3OSwwLjQxNzY1NCBsIDYuNDk2MTAxMSwtMC4wMDE1IGEgMS4xMTkxMjU1LDEuMTA5OTY3MSAwIDAgMCAwLjg3NDk3ODgsLTAuNDE2OTA2IEwgMS4zODE4ODcyLDE1LjE0OTQ1MyBBIDEuMTE5MTI1NSwxLjEwOTk2NzEgMCAwIDAgMS41OTgxOTg2LDE0LjIxMDEwNCBMIDAuMTUyMTI2NTcsNy45Mjg4MTU0IEEgMS4xMTkxMjU1LDEuMTA5OTY3MSAwIDAgMCAtMC40NTMzOTc5NCw3LjE3NTgzOTYgTCAtNi4zMDY1NDk2LDQuMzgwOTk3MSBBIDEuMTE5MTI1NSwxLjEwOTk2NzEgMCAwIDAgLTYuODQ5MjAxNSw0LjI3MjQ2NjggWiIgc3R5bGU9ImZpbGw6IzMyNmNlNTtmaWxsLW9wYWNpdHk6MTtzdHJva2U6bm9uZTtzdHJva2Utd2lkdGg6MDtzdHJva2UtbWl0ZXJsaW1pdDo0O3N0cm9rZS1kYXNoYXJyYXk6bm9uZTtzdHJva2Utb3BhY2l0eToxIi8+JiN4YTsgICAgICA8cGF0aCBpZD0icGF0aDMwNTQtMi05IiBkPSJNIC02Ljg1MjM0MzUsMy44MTc2MzcyIEEgMS4xODE0MzA0LDEuMTcxNzYyIDAgMCAwIC03LjMwNDQyODQsMy45MzI5MDQgbCAtNi4xNzg3NDI2LDIuOTUxMjc1OCBhIDEuMTgxNDMwNCwxLjE3MTc2MiAwIDAgMCAtMC42MzkyMDYsMC43OTQ4OTEgbCAtMS41MjM5MTUsNi42MzA4MjgyIGEgMS4xODE0MzA0LDEuMTcxNzYyIDAgMCAwIDAuMTYwMTc1LDAuODk4OTMgMS4xODE0MzA0LDEuMTcxNzYyIDAgMCAwIDAuMDY3MzYsMC4wOTI4MSBsIDQuMjc2MDk0LDUuMzE3MjM2IGEgMS4xODE0MzA0LDEuMTcxNzYyIDAgMCAwIDAuOTIzNjMsMC40NDA4NTggbCA2Ljg1NzYxODgsLTAuMDAxNSBhIDEuMTgxNDMwNCwxLjE3MTc2MiAwIDAgMCAwLjkyMzYzMDgsLTAuNDQwMTEgbCA0LjI3NDU5NjYsLTUuMzE3OTg1IGEgMS4xODE0MzA0LDEuMTcxNzYyIDAgMCAwIDAuMjI4Mjg4LC0wLjk5MDk5MyBMIDAuNTM4OTQ0MzksNy42Nzc1NzM4IEEgMS4xODE0MzA0LDEuMTcxNzYyIDAgMCAwIC0wLjEwMDI2MTAxLDYuODgzNDMxMyBMIC02LjI3OTAwMzcsMy45MzIxNTU1IEEgMS4xODE0MzA0LDEuMTcxNzYyIDAgMCAwIC02Ljg1MjM0MzUsMy44MTc2MzcyIFogbSAwLjAwMjk5LDAuNDU1MDc4OSBhIDEuMTE5MTI1NSwxLjEwOTk2NzEgMCAwIDEgMC41NDI2NTE3LDAuMTA4NTMwMyBsIDUuODUzMTUxNjksMi43OTQ4NDI1IEEgMS4xMTkxMjU1LDEuMTA5OTY3MSAwIDAgMSAwLjE1MTk3ODExLDcuOTI5MDY0OCBMIDEuNTk4MDUxLDE0LjIxMDM1IGEgMS4xMTkxMjU1LDEuMTA5OTY3MSAwIDAgMSAtMC4yMTYzMTIzLDAuOTM5MzQ4IGwgLTQuMDQ5MzAzMiw1LjAzNzMwNCBhIDEuMTE5MTI1NSwxLjEwOTk2NzEgMCAwIDEgLTAuODc0OTc4OSwwLjQxNjkwNiBsIC02LjQ5NjEwMDYsMC4wMDE1IGEgMS4xMTkxMjU1LDEuMTA5OTY3MSAwIDAgMSAtMC44NzQ5NzksLTAuNDE3NjUyIGwgLTQuMDUwOCwtNS4wMzY1NTQgYSAxLjExOTEyNTUsMS4xMDk5NjcxIDAgMCAxIC0wLjA2MzYyLC0wLjA4ODMyIDEuMTE5MTI1NSwxLjEwOTk2NzEgMCAwIDEgLTAuMTUxOTQyLC0wLjg1MTAyOCBsIDEuNDQzODI3LC02LjI4MTI4NTMgYSAxLjExOTEyNTUsMS4xMDk5NjcxIDAgMCAxIDAuNjA1NTI0LC0wLjc1Mjk3NTggbCA1Ljg1MjQwMzYsLTIuNzk2MzM5NSBhIDEuMTE5MTI1NSwxLjEwOTk2NzEgMCAwIDEgMC40Mjg4ODE5LC0wLjEwODUzMDMgeiIgc3R5bGU9ImNvbG9yOiMwMDAwMDA7Zm9udC1zdHlsZTpub3JtYWw7Zm9udC12YXJpYW50Om5vcm1hbDtmb250LXdlaWdodDpub3JtYWw7Zm9udC1zdHJldGNoOm5vcm1hbDtmb250LXNpemU6bWVkaXVtO2xpbmUtaGVpZ2h0Om5vcm1hbDtmb250LWZhbWlseTpTYW5zOy1pbmtzY2FwZS1mb250LXNwZWNpZmljYXRpb246U2Fuczt0ZXh0LWluZGVudDowO3RleHQtYWxpZ246c3RhcnQ7dGV4dC1kZWNvcmF0aW9uOm5vbmU7dGV4dC1kZWNvcmF0aW9uLWxpbmU6bm9uZTtsZXR0ZXItc3BhY2luZzpub3JtYWw7d29yZC1zcGFjaW5nOm5vcm1hbDt0ZXh0LXRyYW5zZm9ybTpub25lO3dyaXRpbmctbW9kZTpsci10YjtkaXJlY3Rpb246bHRyO2Jhc2VsaW5lLXNoaWZ0OmJhc2VsaW5lO3RleHQtYW5jaG9yOnN0YXJ0O2Rpc3BsYXk6aW5saW5lO292ZXJmbG93OnZpc2libGU7dmlzaWJpbGl0eTp2aXNpYmxlO2ZpbGw6I2ZmZmZmZjtmaWxsLW9wYWNpdHk6MTtmaWxsLXJ1bGU6bm9uemVybztzdHJva2U6bm9uZTtzdHJva2Utd2lkdGg6MDtzdHJva2UtbWl0ZXJsaW1pdDo0O3N0cm9rZS1kYXNoYXJyYXk6bm9uZTttYXJrZXI6bm9uZTtlbmFibGUtYmFja2dyb3VuZDphY2N1bXVsYXRlIiBpbmtzY2FwZTpjb25uZWN0b3ItY3VydmF0dXJlPSIwIi8+JiN4YTsgICAgPC9nPiYjeGE7ICAgIDx0ZXh0IGlkPSJ0ZXh0MjA2NiIgeT0iMTYuODExNzc1IiB4PSI5Ljk3NDQ2NDQiIHN0eWxlPSJmb250LXN0eWxlOm5vcm1hbDtmb250LXdlaWdodDpub3JtYWw7Zm9udC1zaXplOjEwLjU4MzMzMzAycHg7bGluZS1oZWlnaHQ6Ni42MTQ1ODM0OXB4O2ZvbnQtZmFtaWx5OlNhbnM7bGV0dGVyLXNwYWNpbmc6MHB4O3dvcmQtc3BhY2luZzowcHg7ZmlsbDojZmZmZmZmO2ZpbGwtb3BhY2l0eToxO3N0cm9rZTpub25lO3N0cm9rZS13aWR0aDowLjI2NDU4MzMycHg7c3Ryb2tlLWxpbmVjYXA6YnV0dDtzdHJva2UtbGluZWpvaW46bWl0ZXI7c3Ryb2tlLW9wYWNpdHk6MSIgeG1sOnNwYWNlPSJwcmVzZXJ2ZSI+PHRzcGFuIHN0eWxlPSJmb250LXN0eWxlOm5vcm1hbDtmb250LXZhcmlhbnQ6bm9ybWFsO2ZvbnQtd2VpZ2h0Om5vcm1hbDtmb250LXN0cmV0Y2g6bm9ybWFsO2ZvbnQtc2l6ZToyLjgyMjIyMjIzcHg7Zm9udC1mYW1pbHk6QXJpYWw7LWlua3NjYXBlLWZvbnQtc3BlY2lmaWNhdGlvbjonQXJpYWwsIE5vcm1hbCc7dGV4dC1hbGlnbjpjZW50ZXI7d3JpdGluZy1tb2RlOmxyLXRiO3RleHQtYW5jaG9yOm1pZGRsZTtmaWxsOiNmZmZmZmY7ZmlsbC1vcGFjaXR5OjE7c3Ryb2tlLXdpZHRoOjAuMjY0NTgzMzJweCIgeT0iMTYuODExNzc1IiB4PSI5Ljk3NDQ2NDQiIGlkPSJ0c3BhbjIwNjQiIHNvZGlwb2RpOnJvbGU9ImxpbmUiPmRlcGxveTwvdHNwYW4+PC90ZXh0PiYjeGE7ICAgIDxnIGlkPSJnMzM0MCIgdHJhbnNmb3JtPSJ0cmFuc2xhdGUoLTAuNjUzODU1NDYsMCkiPiYjeGE7ICAgICAgPHBhdGggc3R5bGU9ImZpbGw6I2ZmZmZmZjtmaWxsLXJ1bGU6ZXZlbm9kZDtzdHJva2U6bm9uZTtzdHJva2Utd2lkdGg6MC4yNjQ1ODMzMjtzdHJva2UtbGluZWNhcDpzcXVhcmU7c3Ryb2tlLW1pdGVybGltaXQ6MTAiIGlua3NjYXBlOmNvbm5lY3Rvci1jdXJ2YXR1cmU9IjAiIGQ9Im0gMTAuMjI1MDYyLDEzLjczMTYzMiAwLDAgQyA3Ljc4MjQyMTgsMTMuODQ3MTc3IDUuNzA1MDExNiwxMS45NjgzODYgNS41NzUzNDE3LDkuNTI2NDYzNCA1LjQ0NTY1MTYsNy4wODQ1NDA1IDcuMzEyNDAxOCw0Ljk5NjI5MDUgOS43NTM1MzE4LDQuODUyNDc5NSBjIDIuNDQxMTIwMiwtMC4xNDM4MTEgNC41NDAxNDEyLDEuNzEwODEgNC42OTgwODEyLDQuMTUxMDY4MiBsIC0xLjc1NzA4MSwwLjExMzcyMDggYyAtMC4wOTU0LC0xLjQ3MzgxOCAtMS4zNjMxMSwtMi41OTM5MzUgLTIuODM3NDYwMiwtMi41MDcwOCAtMS40NzQzNCwwLjA4Njg2IC0yLjYwMTc4LDEuMzQ4MDc2MSAtMi41MjM0NiwyLjgyMjg5OTEgMC4wNzgzLDEuNDc0ODIyNCAxLjMzMywyLjYwOTUzODQgMi44MDgyNTAyLDIuNTM5NzUzNCB6IiBpZD0icGF0aDEyMjIiLz4mI3hhOyAgICAgIDxwYXRoIHN0eWxlPSJmaWxsOiNmZmZmZmY7ZmlsbC1ydWxlOmV2ZW5vZGQ7c3Ryb2tlOm5vbmU7c3Ryb2tlLXdpZHRoOjAuMjY0NTgzMzI7c3Ryb2tlLWxpbmVjYXA6c3F1YXJlO3N0cm9rZS1taXRlcmxpbWl0OjEwIiBpbmtzY2FwZTpjb25uZWN0b3ItY3VydmF0dXJlPSIwIiBkPSJtIDExLjEzNTU3NCw5LjAwODgwMTUgMS4zOTc0NSwzLjQyMDUwODUgMy4yMjYzLC0zLjQyMDUwODUgeiIgaWQ9InBhdGgxMjI0Ii8+JiN4YTsgICAgPC9nPiYjeGE7ICA8L2c+JiN4YTs8L3N2Zz4=;strokeColor=#ef7b4d;" vertex="1" parent="4WFZzYb8yz6Z_idM63du-70">
          <mxGeometry x="23" y="45" width="65" height="65" as="geometry" />
        </mxCell>
        <mxCell id="4WFZzYb8yz6Z_idM63du-68" value="" style="shape=image;verticalLabelPosition=bottom;verticalAlign=top;imageAspect=0;aspect=fixed;image=data:image/svg+xml,PHN2ZyB4bWxuczpkYz0iaHR0cDovL3B1cmwub3JnL2RjL2VsZW1lbnRzLzEuMS8iIHhtbG5zOmNjPSJodHRwOi8vY3JlYXRpdmVjb21tb25zLm9yZy9ucyMiIHhtbG5zOnJkZj0iaHR0cDovL3d3dy53My5vcmcvMTk5OS8wMi8yMi1yZGYtc3ludGF4LW5zIyIgeG1sbnM6c3ZnPSJodHRwOi8vd3d3LnczLm9yZy8yMDAwL3N2ZyIgeG1sbnM9Imh0dHA6Ly93d3cudzMub3JnLzIwMDAvc3ZnIiB4bWxuczpzb2RpcG9kaT0iaHR0cDovL3NvZGlwb2RpLnNvdXJjZWZvcmdlLm5ldC9EVEQvc29kaXBvZGktMC5kdGQiIHhtbG5zOmlua3NjYXBlPSJodHRwOi8vd3d3Lmlua3NjYXBlLm9yZy9uYW1lc3BhY2VzL2lua3NjYXBlIiB3aWR0aD0iMTguMDM1MzM0bW0iIGhlaWdodD0iMTcuNTAwMzc4bW0iIHZpZXdCb3g9IjAgMCAxOC4wMzUzMzQgMTcuNTAwMzc4IiB2ZXJzaW9uPSIxLjEiIGlkPSJzdmcxMzgyNiIgaW5rc2NhcGU6dmVyc2lvbj0iMC45MSByMTM3MjUiIHNvZGlwb2RpOmRvY25hbWU9ImNtLnN2ZyI+JiN4YTsgIDxkZWZzIGlkPSJkZWZzMTM4MjAiLz4mI3hhOyAgPHNvZGlwb2RpOm5hbWVkdmlldyBpZD0iYmFzZSIgcGFnZWNvbG9yPSIjZmZmZmZmIiBib3JkZXJjb2xvcj0iIzY2NjY2NiIgYm9yZGVyb3BhY2l0eT0iMS4wIiBpbmtzY2FwZTpwYWdlb3BhY2l0eT0iMC4wIiBpbmtzY2FwZTpwYWdlc2hhZG93PSIyIiBpbmtzY2FwZTp6b29tPSI4IiBpbmtzY2FwZTpjeD0iMTYuODQ3NDk2IiBpbmtzY2FwZTpjeT0iMzMuNzUyMjM5IiBpbmtzY2FwZTpkb2N1bWVudC11bml0cz0ibW0iIGlua3NjYXBlOmN1cnJlbnQtbGF5ZXI9ImxheWVyMSIgc2hvd2dyaWQ9ImZhbHNlIiBpbmtzY2FwZTp3aW5kb3ctd2lkdGg9IjE0NDAiIGlua3NjYXBlOndpbmRvdy1oZWlnaHQ9Ijc3MSIgaW5rc2NhcGU6d2luZG93LXg9IjEiIGlua3NjYXBlOndpbmRvdy15PSIwIiBpbmtzY2FwZTp3aW5kb3ctbWF4aW1pemVkPSIwIiBmaXQtbWFyZ2luLXRvcD0iMCIgZml0LW1hcmdpbi1sZWZ0PSIwIiBmaXQtbWFyZ2luLXJpZ2h0PSIwIiBmaXQtbWFyZ2luLWJvdHRvbT0iMCIvPiYjeGE7ICAmI3hhOyAgPGcgaW5rc2NhcGU6bGFiZWw9IkNhbHF1ZSAxIiBpbmtzY2FwZTpncm91cG1vZGU9ImxheWVyIiBpZD0ibGF5ZXIxIiB0cmFuc2Zvcm09InRyYW5zbGF0ZSgtMC45OTI2MjYzOCwtMS4xNzQxODEpIj4mI3hhOyAgICA8ZyBpZD0iZzcwIiB0cmFuc2Zvcm09Im1hdHJpeCgxLjAxNDg4ODcsMCwwLDEuMDE0ODg4NywxNi45MDIxNDYsLTIuNjk4NzI2KSI+JiN4YTsgICAgICA8cGF0aCBpbmtzY2FwZTpleHBvcnQteWRwaT0iMjUwLjU1IiBpbmtzY2FwZTpleHBvcnQteGRwaT0iMjUwLjU1IiBpbmtzY2FwZTpleHBvcnQtZmlsZW5hbWU9Im5ldy5wbmciIGlua3NjYXBlOmNvbm5lY3Rvci1jdXJ2YXR1cmU9IjAiIGlkPSJwYXRoMzA1NSIgZD0ibSAtNi44NDkyMDE1LDQuMjcyNDY2OCBhIDEuMTE5MTI1NSwxLjEwOTk2NzEgMCAwIDAgLTAuNDI4ODgxOCwwLjEwODUzMDMgbCAtNS44NTI0MDM3LDIuNzk2MzM5NCBhIDEuMTE5MTI1NSwxLjEwOTk2NzEgMCAwIDAgLTAuNjA1NTI0LDAuNzUyOTc1OSBsIC0xLjQ0MzgyOCw2LjI4MTI4NDYgYSAxLjExOTEyNTUsMS4xMDk5NjcxIDAgMCAwIDAuMTUxOTQzLDAuODUxMDI4IDEuMTE5MTI1NSwxLjEwOTk2NzEgMCAwIDAgMC4wNjM2MiwwLjA4ODMyIGwgNC4wNTA4LDUuMDM2NTU1IGEgMS4xMTkxMjU1LDEuMTA5OTY3MSAwIDAgMCAwLjg3NDk3OSwwLjQxNzY1NCBsIDYuNDk2MTAxMSwtMC4wMDE1IGEgMS4xMTkxMjU1LDEuMTA5OTY3MSAwIDAgMCAwLjg3NDk3ODgsLTAuNDE2OTA2IEwgMS4zODE4ODcyLDE1LjE0OTQ1MyBBIDEuMTE5MTI1NSwxLjEwOTk2NzEgMCAwIDAgMS41OTgxOTg2LDE0LjIxMDEwNCBMIDAuMTUyMTI2NTcsNy45Mjg4MTU0IEEgMS4xMTkxMjU1LDEuMTA5OTY3MSAwIDAgMCAtMC40NTMzOTc5NCw3LjE3NTgzOTYgTCAtNi4zMDY1NDk2LDQuMzgwOTk3MSBBIDEuMTE5MTI1NSwxLjEwOTk2NzEgMCAwIDAgLTYuODQ5MjAxNSw0LjI3MjQ2NjggWiIgc3R5bGU9ImZpbGw6IzMyNmNlNTtmaWxsLW9wYWNpdHk6MTtzdHJva2U6bm9uZTtzdHJva2Utd2lkdGg6MDtzdHJva2UtbWl0ZXJsaW1pdDo0O3N0cm9rZS1kYXNoYXJyYXk6bm9uZTtzdHJva2Utb3BhY2l0eToxIi8+JiN4YTsgICAgICA8cGF0aCBpZD0icGF0aDMwNTQtMi05IiBkPSJNIC02Ljg1MjM0MzUsMy44MTc2MzcyIEEgMS4xODE0MzA0LDEuMTcxNzYyIDAgMCAwIC03LjMwNDQyODQsMy45MzI5MDQgbCAtNi4xNzg3NDI2LDIuOTUxMjc1OCBhIDEuMTgxNDMwNCwxLjE3MTc2MiAwIDAgMCAtMC42MzkyMDYsMC43OTQ4OTEgbCAtMS41MjM5MTUsNi42MzA4MjgyIGEgMS4xODE0MzA0LDEuMTcxNzYyIDAgMCAwIDAuMTYwMTc1LDAuODk4OTMgMS4xODE0MzA0LDEuMTcxNzYyIDAgMCAwIDAuMDY3MzYsMC4wOTI4MSBsIDQuMjc2MDk0LDUuMzE3MjM2IGEgMS4xODE0MzA0LDEuMTcxNzYyIDAgMCAwIDAuOTIzNjMsMC40NDA4NTggbCA2Ljg1NzYxODgsLTAuMDAxNSBhIDEuMTgxNDMwNCwxLjE3MTc2MiAwIDAgMCAwLjkyMzYzMDgsLTAuNDQwMTEgbCA0LjI3NDU5NjYsLTUuMzE3OTg1IGEgMS4xODE0MzA0LDEuMTcxNzYyIDAgMCAwIDAuMjI4Mjg4LC0wLjk5MDk5MyBMIDAuNTM4OTQ0MzksNy42Nzc1NzM4IEEgMS4xODE0MzA0LDEuMTcxNzYyIDAgMCAwIC0wLjEwMDI2MTAxLDYuODgzNDMxMyBMIC02LjI3OTAwMzcsMy45MzIxNTU1IEEgMS4xODE0MzA0LDEuMTcxNzYyIDAgMCAwIC02Ljg1MjM0MzUsMy44MTc2MzcyIFogbSAwLjAwMjk5LDAuNDU1MDc4OSBhIDEuMTE5MTI1NSwxLjEwOTk2NzEgMCAwIDEgMC41NDI2NTE3LDAuMTA4NTMwMyBsIDUuODUzMTUxNjksMi43OTQ4NDI1IEEgMS4xMTkxMjU1LDEuMTA5OTY3MSAwIDAgMSAwLjE1MTk3ODExLDcuOTI5MDY0OCBMIDEuNTk4MDUxLDE0LjIxMDM1IGEgMS4xMTkxMjU1LDEuMTA5OTY3MSAwIDAgMSAtMC4yMTYzMTIzLDAuOTM5MzQ4IGwgLTQuMDQ5MzAzMiw1LjAzNzMwNCBhIDEuMTE5MTI1NSwxLjEwOTk2NzEgMCAwIDEgLTAuODc0OTc4OSwwLjQxNjkwNiBsIC02LjQ5NjEwMDYsMC4wMDE1IGEgMS4xMTkxMjU1LDEuMTA5OTY3MSAwIDAgMSAtMC44NzQ5NzksLTAuNDE3NjUyIGwgLTQuMDUwOCwtNS4wMzY1NTQgYSAxLjExOTEyNTUsMS4xMDk5NjcxIDAgMCAxIC0wLjA2MzYyLC0wLjA4ODMyIDEuMTE5MTI1NSwxLjEwOTk2NzEgMCAwIDEgLTAuMTUxOTQyLC0wLjg1MTAyOCBsIDEuNDQzODI3LC02LjI4MTI4NTMgYSAxLjExOTEyNTUsMS4xMDk5NjcxIDAgMCAxIDAuNjA1NTI0LC0wLjc1Mjk3NTggbCA1Ljg1MjQwMzYsLTIuNzk2MzM5NSBhIDEuMTE5MTI1NSwxLjEwOTk2NzEgMCAwIDEgMC40Mjg4ODE5LC0wLjEwODUzMDMgeiIgc3R5bGU9ImNvbG9yOiMwMDAwMDA7Zm9udC1zdHlsZTpub3JtYWw7Zm9udC12YXJpYW50Om5vcm1hbDtmb250LXdlaWdodDpub3JtYWw7Zm9udC1zdHJldGNoOm5vcm1hbDtmb250LXNpemU6bWVkaXVtO2xpbmUtaGVpZ2h0Om5vcm1hbDtmb250LWZhbWlseTpTYW5zOy1pbmtzY2FwZS1mb250LXNwZWNpZmljYXRpb246U2Fuczt0ZXh0LWluZGVudDowO3RleHQtYWxpZ246c3RhcnQ7dGV4dC1kZWNvcmF0aW9uOm5vbmU7dGV4dC1kZWNvcmF0aW9uLWxpbmU6bm9uZTtsZXR0ZXItc3BhY2luZzpub3JtYWw7d29yZC1zcGFjaW5nOm5vcm1hbDt0ZXh0LXRyYW5zZm9ybTpub25lO3dyaXRpbmctbW9kZTpsci10YjtkaXJlY3Rpb246bHRyO2Jhc2VsaW5lLXNoaWZ0OmJhc2VsaW5lO3RleHQtYW5jaG9yOnN0YXJ0O2Rpc3BsYXk6aW5saW5lO292ZXJmbG93OnZpc2libGU7dmlzaWJpbGl0eTp2aXNpYmxlO2ZpbGw6I2ZmZmZmZjtmaWxsLW9wYWNpdHk6MTtmaWxsLXJ1bGU6bm9uemVybztzdHJva2U6bm9uZTtzdHJva2Utd2lkdGg6MDtzdHJva2UtbWl0ZXJsaW1pdDo0O3N0cm9rZS1kYXNoYXJyYXk6bm9uZTttYXJrZXI6bm9uZTtlbmFibGUtYmFja2dyb3VuZDphY2N1bXVsYXRlIiBpbmtzY2FwZTpjb25uZWN0b3ItY3VydmF0dXJlPSIwIi8+JiN4YTsgICAgPC9nPiYjeGE7ICAgIDx0ZXh0IGlkPSJ0ZXh0MjA2NiIgeT0iMTYuODExNzc1IiB4PSIxMC4wNDc1MDEiIHN0eWxlPSJmb250LXN0eWxlOm5vcm1hbDtmb250LXdlaWdodDpub3JtYWw7Zm9udC1zaXplOjEwLjU4MzMzMzAycHg7bGluZS1oZWlnaHQ6Ni42MTQ1ODM0OXB4O2ZvbnQtZmFtaWx5OlNhbnM7bGV0dGVyLXNwYWNpbmc6MHB4O3dvcmQtc3BhY2luZzowcHg7ZmlsbDojZmZmZmZmO2ZpbGwtb3BhY2l0eToxO3N0cm9rZTpub25lO3N0cm9rZS13aWR0aDowLjI2NDU4MzMycHg7c3Ryb2tlLWxpbmVjYXA6YnV0dDtzdHJva2UtbGluZWpvaW46bWl0ZXI7c3Ryb2tlLW9wYWNpdHk6MSIgeG1sOnNwYWNlPSJwcmVzZXJ2ZSI+PHRzcGFuIHN0eWxlPSJmb250LXN0eWxlOm5vcm1hbDtmb250LXZhcmlhbnQ6bm9ybWFsO2ZvbnQtd2VpZ2h0Om5vcm1hbDtmb250LXN0cmV0Y2g6bm9ybWFsO2ZvbnQtc2l6ZToyLjgyMjIyMjIzcHg7Zm9udC1mYW1pbHk6QXJpYWw7LWlua3NjYXBlLWZvbnQtc3BlY2lmaWNhdGlvbjonQXJpYWwsIE5vcm1hbCc7dGV4dC1hbGlnbjpjZW50ZXI7d3JpdGluZy1tb2RlOmxyLXRiO3RleHQtYW5jaG9yOm1pZGRsZTtmaWxsOiNmZmZmZmY7ZmlsbC1vcGFjaXR5OjE7c3Ryb2tlLXdpZHRoOjAuMjY0NTgzMzJweCIgeT0iMTYuODExNzc1IiB4PSIxMC4wNDc1MDEiIGlkPSJ0c3BhbjIwNjQiIHNvZGlwb2RpOnJvbGU9ImxpbmUiPmNtPC90c3Bhbj48L3RleHQ+JiN4YTsgICAgPGcgaWQ9ImczMzQ5IiB0cmFuc2Zvcm09InRyYW5zbGF0ZSgwLjExNzc4OTgxLDApIj4mI3hhOyAgICAgIDxwYXRoIGlua3NjYXBlOmV4cG9ydC15ZHBpPSIzNzYuNTc5OTkiIGlua3NjYXBlOmV4cG9ydC14ZHBpPSIzNzYuNTc5OTkiIHN0eWxlPSJmaWxsOm5vbmU7ZmlsbC1ydWxlOmV2ZW5vZGQ7c3Ryb2tlOiNmZmZmZmY7c3Ryb2tlLXdpZHRoOjAuNzkzNzQ5OTk7c3Ryb2tlLWxpbmVjYXA6YnV0dDtzdHJva2UtbGluZWpvaW46cm91bmQ7c3Ryb2tlLW1pdGVybGltaXQ6MTA7c3Ryb2tlLW9wYWNpdHk6MSIgaW5rc2NhcGU6Y29ubmVjdG9yLWN1cnZhdHVyZT0iMCIgZD0ibSA4LjIzNjk0OCw2LjI5MTQyNjIgNS44MjUwMDEsMCIgaWQ9InBhdGg4NzYiLz4mI3hhOyAgICAgIDxwYXRoIGlua3NjYXBlOmV4cG9ydC15ZHBpPSIzNzYuNTc5OTkiIGlua3NjYXBlOmV4cG9ydC14ZHBpPSIzNzYuNTc5OTkiIHN0eWxlPSJmaWxsOm5vbmU7ZmlsbC1ydWxlOmV2ZW5vZGQ7c3Ryb2tlOiNmZmZmZmY7c3Ryb2tlLXdpZHRoOjAuNzkzNzQ5OTk7c3Ryb2tlLWxpbmVjYXA6YnV0dDtzdHJva2UtbGluZWpvaW46cm91bmQ7c3Ryb2tlLW1pdGVybGltaXQ6MTA7c3Ryb2tlLW9wYWNpdHk6MSIgaW5rc2NhcGU6Y29ubmVjdG9yLWN1cnZhdHVyZT0iMCIgZD0ibSA1LjcyMzA1OCw2LjI5MTQyNjIgMS40NTgzNCwwIiBpZD0icGF0aDg4MCIvPiYjeGE7ICAgICAgPGEgaWQ9ImEzMzQ2Ij4mI3hhOyAgICAgICAgPHBhdGggaWQ9InBhdGg4ODQiIGQ9Im0gMTAuMzUzNjE5LDguNDA4MDkyOCAzLjcwODMzLDAiIGlua3NjYXBlOmNvbm5lY3Rvci1jdXJ2YXR1cmU9IjAiIHN0eWxlPSJmaWxsOm5vbmU7ZmlsbC1ydWxlOmV2ZW5vZGQ7c3Ryb2tlOiNmZmZmZmY7c3Ryb2tlLXdpZHRoOjAuNzkzNzQ5OTk7c3Ryb2tlLWxpbmVjYXA6YnV0dDtzdHJva2UtbGluZWpvaW46cm91bmQ7c3Ryb2tlLW1pdGVybGltaXQ6MTA7c3Ryb2tlLW9wYWNpdHk6MSIgaW5rc2NhcGU6ZXhwb3J0LXhkcGk9IjM3Ni41Nzk5OSIgaW5rc2NhcGU6ZXhwb3J0LXlkcGk9IjM3Ni41Nzk5OSIvPiYjeGE7ICAgICAgPC9hPiYjeGE7ICAgICAgPHBhdGggaW5rc2NhcGU6ZXhwb3J0LXlkcGk9IjM3Ni41Nzk5OSIgaW5rc2NhcGU6ZXhwb3J0LXhkcGk9IjM3Ni41Nzk5OSIgc3R5bGU9ImZpbGw6bm9uZTtmaWxsLXJ1bGU6ZXZlbm9kZDtzdHJva2U6I2ZmZmZmZjtzdHJva2Utd2lkdGg6MC43OTM3NDk5OTtzdHJva2UtbGluZWNhcDpidXR0O3N0cm9rZS1saW5lam9pbjpyb3VuZDtzdHJva2UtbWl0ZXJsaW1pdDoxMDtzdHJva2Utb3BhY2l0eToxIiBpbmtzY2FwZTpjb25uZWN0b3ItY3VydmF0dXJlPSIwIiBkPSJtIDcuODM5NzI4LDguNDA4MDkyOCAxLjQ1ODMzMDUsMCIgaWQ9InBhdGg4ODgiLz4mI3hhOyAgICAgIDxwYXRoIGlua3NjYXBlOmV4cG9ydC15ZHBpPSIzNzYuNTc5OTkiIGlua3NjYXBlOmV4cG9ydC14ZHBpPSIzNzYuNTc5OTkiIHN0eWxlPSJmaWxsOm5vbmU7ZmlsbC1ydWxlOmV2ZW5vZGQ7c3Ryb2tlOiNmZmZmZmY7c3Ryb2tlLXdpZHRoOjAuNzkzNzQ5OTk7c3Ryb2tlLWxpbmVjYXA6YnV0dDtzdHJva2UtbGluZWpvaW46cm91bmQ7c3Ryb2tlLW1pdGVybGltaXQ6MTA7c3Ryb2tlLW9wYWNpdHk6MSIgaW5rc2NhcGU6Y29ubmVjdG9yLWN1cnZhdHVyZT0iMCIgZD0ibSAxMC4zNTM2MTksMTAuNTI0NzYgMy43MDgzMywwIiBpZD0icGF0aDg5MiIvPiYjeGE7ICAgICAgPHBhdGggaW5rc2NhcGU6ZXhwb3J0LXlkcGk9IjM3Ni41Nzk5OSIgaW5rc2NhcGU6ZXhwb3J0LXhkcGk9IjM3Ni41Nzk5OSIgc3R5bGU9ImZpbGw6bm9uZTtmaWxsLXJ1bGU6ZXZlbm9kZDtzdHJva2U6I2ZmZmZmZjtzdHJva2Utd2lkdGg6MC43OTM3NDk5OTtzdHJva2UtbGluZWNhcDpidXR0O3N0cm9rZS1saW5lam9pbjpyb3VuZDtzdHJva2UtbWl0ZXJsaW1pdDoxMDtzdHJva2Utb3BhY2l0eToxIiBpbmtzY2FwZTpjb25uZWN0b3ItY3VydmF0dXJlPSIwIiBkPSJtIDcuODM5NzI4LDEwLjUyNDc2IDEuNDU4MzMwNSwwIiBpZD0icGF0aDg5NiIvPiYjeGE7ICAgICAgPHBhdGggaW5rc2NhcGU6ZXhwb3J0LXlkcGk9IjM3Ni41Nzk5OSIgaW5rc2NhcGU6ZXhwb3J0LXhkcGk9IjM3Ni41Nzk5OSIgc3R5bGU9ImZpbGw6bm9uZTtmaWxsLXJ1bGU6ZXZlbm9kZDtzdHJva2U6I2ZmZmZmZjtzdHJva2Utd2lkdGg6MC43OTM3NDk5OTtzdHJva2UtbGluZWNhcDpidXR0O3N0cm9rZS1saW5lam9pbjpyb3VuZDtzdHJva2UtbWl0ZXJsaW1pdDoxMDtzdHJva2Utb3BhY2l0eToxIiBpbmtzY2FwZTpjb25uZWN0b3ItY3VydmF0dXJlPSIwIiBkPSJtIDguMjM2OTQ4LDEyLjY0MTQyOCA1LjgyNTAwMSwwIiBpZD0icGF0aDkwMCIvPiYjeGE7ICAgICAgPHBhdGggaW5rc2NhcGU6ZXhwb3J0LXlkcGk9IjM3Ni41Nzk5OSIgaW5rc2NhcGU6ZXhwb3J0LXhkcGk9IjM3Ni41Nzk5OSIgc3R5bGU9ImZpbGw6bm9uZTtmaWxsLXJ1bGU6ZXZlbm9kZDtzdHJva2U6I2ZmZmZmZjtzdHJva2Utd2lkdGg6MC43OTM3NDk5OTtzdHJva2UtbGluZWNhcDpidXR0O3N0cm9rZS1saW5lam9pbjpyb3VuZDtzdHJva2UtbWl0ZXJsaW1pdDoxMDtzdHJva2Utb3BhY2l0eToxIiBpbmtzY2FwZTpjb25uZWN0b3ItY3VydmF0dXJlPSIwIiBkPSJtIDUuNzIzMDU4LDEyLjY0MTQyOCAxLjQ1ODM0LDAiIGlkPSJwYXRoOTA0Ii8+JiN4YTsgICAgPC9nPiYjeGE7ICA8L2c+JiN4YTs8L3N2Zz4=;strokeColor=#ef7b4d;" vertex="1" parent="4WFZzYb8yz6Z_idM63du-70">
          <mxGeometry x="108" y="45" width="65" height="65" as="geometry" />
        </mxCell>
        <mxCell id="4WFZzYb8yz6Z_idM63du-66" value="" style="shape=image;verticalLabelPosition=bottom;verticalAlign=top;imageAspect=0;aspect=fixed;image=data:image/svg+xml,PHN2ZyB4bWxuczpkYz0iaHR0cDovL3B1cmwub3JnL2RjL2VsZW1lbnRzLzEuMS8iIHhtbG5zOmNjPSJodHRwOi8vY3JlYXRpdmVjb21tb25zLm9yZy9ucyMiIHhtbG5zOnJkZj0iaHR0cDovL3d3dy53My5vcmcvMTk5OS8wMi8yMi1yZGYtc3ludGF4LW5zIyIgeG1sbnM6c3ZnPSJodHRwOi8vd3d3LnczLm9yZy8yMDAwL3N2ZyIgeG1sbnM9Imh0dHA6Ly93d3cudzMub3JnLzIwMDAvc3ZnIiB4bWxuczpzb2RpcG9kaT0iaHR0cDovL3NvZGlwb2RpLnNvdXJjZWZvcmdlLm5ldC9EVEQvc29kaXBvZGktMC5kdGQiIHhtbG5zOmlua3NjYXBlPSJodHRwOi8vd3d3Lmlua3NjYXBlLm9yZy9uYW1lc3BhY2VzL2lua3NjYXBlIiB3aWR0aD0iMTguMDM1MzM0bW0iIGhlaWdodD0iMTcuNTAwMzc4bW0iIHZpZXdCb3g9IjAgMCAxOC4wMzUzMzQgMTcuNTAwMzc4IiB2ZXJzaW9uPSIxLjEiIGlkPSJzdmcxMzgyNiIgaW5rc2NhcGU6dmVyc2lvbj0iMC45MSByMTM3MjUiIHNvZGlwb2RpOmRvY25hbWU9InNlY3JldC5zdmciPiYjeGE7ICA8ZGVmcyBpZD0iZGVmczEzODIwIi8+JiN4YTsgIDxzb2RpcG9kaTpuYW1lZHZpZXcgaWQ9ImJhc2UiIHBhZ2Vjb2xvcj0iI2ZmZmZmZiIgYm9yZGVyY29sb3I9IiM2NjY2NjYiIGJvcmRlcm9wYWNpdHk9IjEuMCIgaW5rc2NhcGU6cGFnZW9wYWNpdHk9IjAuMCIgaW5rc2NhcGU6cGFnZXNoYWRvdz0iMiIgaW5rc2NhcGU6em9vbT0iOCIgaW5rc2NhcGU6Y3g9IjE2Ljg0NzQ5NiIgaW5rc2NhcGU6Y3k9IjI4Ljc1MjIzOSIgaW5rc2NhcGU6ZG9jdW1lbnQtdW5pdHM9Im1tIiBpbmtzY2FwZTpjdXJyZW50LWxheWVyPSJsYXllcjEiIHNob3dncmlkPSJmYWxzZSIgaW5rc2NhcGU6d2luZG93LXdpZHRoPSIxNDQwIiBpbmtzY2FwZTp3aW5kb3ctaGVpZ2h0PSI3NzUiIGlua3NjYXBlOndpbmRvdy14PSIwIiBpbmtzY2FwZTp3aW5kb3cteT0iMSIgaW5rc2NhcGU6d2luZG93LW1heGltaXplZD0iMSIgZml0LW1hcmdpbi10b3A9IjAiIGZpdC1tYXJnaW4tbGVmdD0iMCIgZml0LW1hcmdpbi1yaWdodD0iMCIgZml0LW1hcmdpbi1ib3R0b209IjAiLz4mI3hhOyAgJiN4YTsgIDxnIGlua3NjYXBlOmxhYmVsPSJDYWxxdWUgMSIgaW5rc2NhcGU6Z3JvdXBtb2RlPSJsYXllciIgaWQ9ImxheWVyMSIgdHJhbnNmb3JtPSJ0cmFuc2xhdGUoLTAuOTkyNjI2MzgsLTEuMTc0MTgxKSI+JiN4YTsgICAgPGcgaWQ9Imc3MCIgdHJhbnNmb3JtPSJtYXRyaXgoMS4wMTQ4ODg3LDAsMCwxLjAxNDg4ODcsMTYuOTAyMTQ2LC0yLjY5ODcyNikiPiYjeGE7ICAgICAgPHBhdGggaW5rc2NhcGU6ZXhwb3J0LXlkcGk9IjI1MC41NSIgaW5rc2NhcGU6ZXhwb3J0LXhkcGk9IjI1MC41NSIgaW5rc2NhcGU6ZXhwb3J0LWZpbGVuYW1lPSJuZXcucG5nIiBpbmtzY2FwZTpjb25uZWN0b3ItY3VydmF0dXJlPSIwIiBpZD0icGF0aDMwNTUiIGQ9Im0gLTYuODQ5MjAxNSw0LjI3MjQ2NjggYSAxLjExOTEyNTUsMS4xMDk5NjcxIDAgMCAwIC0wLjQyODg4MTgsMC4xMDg1MzAzIGwgLTUuODUyNDAzNywyLjc5NjMzOTQgYSAxLjExOTEyNTUsMS4xMDk5NjcxIDAgMCAwIC0wLjYwNTUyNCwwLjc1Mjk3NTkgbCAtMS40NDM4MjgsNi4yODEyODQ2IGEgMS4xMTkxMjU1LDEuMTA5OTY3MSAwIDAgMCAwLjE1MTk0MywwLjg1MTAyOCAxLjExOTEyNTUsMS4xMDk5NjcxIDAgMCAwIDAuMDYzNjIsMC4wODgzMiBsIDQuMDUwOCw1LjAzNjU1NSBhIDEuMTE5MTI1NSwxLjEwOTk2NzEgMCAwIDAgMC44NzQ5NzksMC40MTc2NTQgbCA2LjQ5NjEwMTEsLTAuMDAxNSBhIDEuMTE5MTI1NSwxLjEwOTk2NzEgMCAwIDAgMC44NzQ5Nzg4LC0wLjQxNjkwNiBMIDEuMzgxODg3MiwxNS4xNDk0NTMgQSAxLjExOTEyNTUsMS4xMDk5NjcxIDAgMCAwIDEuNTk4MTk4NiwxNC4yMTAxMDQgTCAwLjE1MjEyNjU3LDcuOTI4ODE1NCBBIDEuMTE5MTI1NSwxLjEwOTk2NzEgMCAwIDAgLTAuNDUzMzk3OTQsNy4xNzU4Mzk2IEwgLTYuMzA2NTQ5Niw0LjM4MDk5NzEgQSAxLjExOTEyNTUsMS4xMDk5NjcxIDAgMCAwIC02Ljg0OTIwMTUsNC4yNzI0NjY4IFoiIHN0eWxlPSJmaWxsOiMzMjZjZTU7ZmlsbC1vcGFjaXR5OjE7c3Ryb2tlOm5vbmU7c3Ryb2tlLXdpZHRoOjA7c3Ryb2tlLW1pdGVybGltaXQ6NDtzdHJva2UtZGFzaGFycmF5Om5vbmU7c3Ryb2tlLW9wYWNpdHk6MSIvPiYjeGE7ICAgICAgPHBhdGggaWQ9InBhdGgzMDU0LTItOSIgZD0iTSAtNi44NTIzNDM1LDMuODE3NjM3MiBBIDEuMTgxNDMwNCwxLjE3MTc2MiAwIDAgMCAtNy4zMDQ0Mjg0LDMuOTMyOTA0IGwgLTYuMTc4NzQyNiwyLjk1MTI3NTggYSAxLjE4MTQzMDQsMS4xNzE3NjIgMCAwIDAgLTAuNjM5MjA2LDAuNzk0ODkxIGwgLTEuNTIzOTE1LDYuNjMwODI4MiBhIDEuMTgxNDMwNCwxLjE3MTc2MiAwIDAgMCAwLjE2MDE3NSwwLjg5ODkzIDEuMTgxNDMwNCwxLjE3MTc2MiAwIDAgMCAwLjA2NzM2LDAuMDkyODEgbCA0LjI3NjA5NCw1LjMxNzIzNiBhIDEuMTgxNDMwNCwxLjE3MTc2MiAwIDAgMCAwLjkyMzYzLDAuNDQwODU4IGwgNi44NTc2MTg4LC0wLjAwMTUgYSAxLjE4MTQzMDQsMS4xNzE3NjIgMCAwIDAgMC45MjM2MzA4LC0wLjQ0MDExIGwgNC4yNzQ1OTY2LC01LjMxNzk4NSBhIDEuMTgxNDMwNCwxLjE3MTc2MiAwIDAgMCAwLjIyODI4OCwtMC45OTA5OTMgTCAwLjUzODk0NDM5LDcuNjc3NTczOCBBIDEuMTgxNDMwNCwxLjE3MTc2MiAwIDAgMCAtMC4xMDAyNjEwMSw2Ljg4MzQzMTMgTCAtNi4yNzkwMDM3LDMuOTMyMTU1NSBBIDEuMTgxNDMwNCwxLjE3MTc2MiAwIDAgMCAtNi44NTIzNDM1LDMuODE3NjM3MiBaIG0gMC4wMDI5OSwwLjQ1NTA3ODkgYSAxLjExOTEyNTUsMS4xMDk5NjcxIDAgMCAxIDAuNTQyNjUxNywwLjEwODUzMDMgbCA1Ljg1MzE1MTY5LDIuNzk0ODQyNSBBIDEuMTE5MTI1NSwxLjEwOTk2NzEgMCAwIDEgMC4xNTE5NzgxMSw3LjkyOTA2NDggTCAxLjU5ODA1MSwxNC4yMTAzNSBhIDEuMTE5MTI1NSwxLjEwOTk2NzEgMCAwIDEgLTAuMjE2MzEyMywwLjkzOTM0OCBsIC00LjA0OTMwMzIsNS4wMzczMDQgYSAxLjExOTEyNTUsMS4xMDk5NjcxIDAgMCAxIC0wLjg3NDk3ODksMC40MTY5MDYgbCAtNi40OTYxMDA2LDAuMDAxNSBhIDEuMTE5MTI1NSwxLjEwOTk2NzEgMCAwIDEgLTAuODc0OTc5LC0wLjQxNzY1MiBsIC00LjA1MDgsLTUuMDM2NTU0IGEgMS4xMTkxMjU1LDEuMTA5OTY3MSAwIDAgMSAtMC4wNjM2MiwtMC4wODgzMiAxLjExOTEyNTUsMS4xMDk5NjcxIDAgMCAxIC0wLjE1MTk0MiwtMC44NTEwMjggbCAxLjQ0MzgyNywtNi4yODEyODUzIGEgMS4xMTkxMjU1LDEuMTA5OTY3MSAwIDAgMSAwLjYwNTUyNCwtMC43NTI5NzU4IGwgNS44NTI0MDM2LC0yLjc5NjMzOTUgYSAxLjExOTEyNTUsMS4xMDk5NjcxIDAgMCAxIDAuNDI4ODgxOSwtMC4xMDg1MzAzIHoiIHN0eWxlPSJjb2xvcjojMDAwMDAwO2ZvbnQtc3R5bGU6bm9ybWFsO2ZvbnQtdmFyaWFudDpub3JtYWw7Zm9udC13ZWlnaHQ6bm9ybWFsO2ZvbnQtc3RyZXRjaDpub3JtYWw7Zm9udC1zaXplOm1lZGl1bTtsaW5lLWhlaWdodDpub3JtYWw7Zm9udC1mYW1pbHk6U2FuczstaW5rc2NhcGUtZm9udC1zcGVjaWZpY2F0aW9uOlNhbnM7dGV4dC1pbmRlbnQ6MDt0ZXh0LWFsaWduOnN0YXJ0O3RleHQtZGVjb3JhdGlvbjpub25lO3RleHQtZGVjb3JhdGlvbi1saW5lOm5vbmU7bGV0dGVyLXNwYWNpbmc6bm9ybWFsO3dvcmQtc3BhY2luZzpub3JtYWw7dGV4dC10cmFuc2Zvcm06bm9uZTt3cml0aW5nLW1vZGU6bHItdGI7ZGlyZWN0aW9uOmx0cjtiYXNlbGluZS1zaGlmdDpiYXNlbGluZTt0ZXh0LWFuY2hvcjpzdGFydDtkaXNwbGF5OmlubGluZTtvdmVyZmxvdzp2aXNpYmxlO3Zpc2liaWxpdHk6dmlzaWJsZTtmaWxsOiNmZmZmZmY7ZmlsbC1vcGFjaXR5OjE7ZmlsbC1ydWxlOm5vbnplcm87c3Ryb2tlOm5vbmU7c3Ryb2tlLXdpZHRoOjA7c3Ryb2tlLW1pdGVybGltaXQ6NDtzdHJva2UtZGFzaGFycmF5Om5vbmU7bWFya2VyOm5vbmU7ZW5hYmxlLWJhY2tncm91bmQ6YWNjdW11bGF0ZSIgaW5rc2NhcGU6Y29ubmVjdG9yLWN1cnZhdHVyZT0iMCIvPiYjeGE7ICAgIDwvZz4mI3hhOyAgICA8dGV4dCBpZD0idGV4dDIwNjYiIHk9IjE2Ljg4MjMzMiIgeD0iOS45NzY1MzEiIHN0eWxlPSJmb250LXN0eWxlOm5vcm1hbDtmb250LXdlaWdodDpub3JtYWw7Zm9udC1zaXplOjEwLjU4MzMzMzAycHg7bGluZS1oZWlnaHQ6Ni42MTQ1ODM0OXB4O2ZvbnQtZmFtaWx5OlNhbnM7bGV0dGVyLXNwYWNpbmc6MHB4O3dvcmQtc3BhY2luZzowcHg7ZmlsbDojZmZmZmZmO2ZpbGwtb3BhY2l0eToxO3N0cm9rZTpub25lO3N0cm9rZS13aWR0aDowLjI2NDU4MzMycHg7c3Ryb2tlLWxpbmVjYXA6YnV0dDtzdHJva2UtbGluZWpvaW46bWl0ZXI7c3Ryb2tlLW9wYWNpdHk6MSIgeG1sOnNwYWNlPSJwcmVzZXJ2ZSI+PHRzcGFuIHN0eWxlPSJmb250LXN0eWxlOm5vcm1hbDtmb250LXZhcmlhbnQ6bm9ybWFsO2ZvbnQtd2VpZ2h0Om5vcm1hbDtmb250LXN0cmV0Y2g6bm9ybWFsO2ZvbnQtc2l6ZToyLjgyMjIyMjIzcHg7Zm9udC1mYW1pbHk6QXJpYWw7LWlua3NjYXBlLWZvbnQtc3BlY2lmaWNhdGlvbjonQXJpYWwsIE5vcm1hbCc7dGV4dC1hbGlnbjpjZW50ZXI7d3JpdGluZy1tb2RlOmxyLXRiO3RleHQtYW5jaG9yOm1pZGRsZTtmaWxsOiNmZmZmZmY7ZmlsbC1vcGFjaXR5OjE7c3Ryb2tlLXdpZHRoOjAuMjY0NTgzMzJweCIgeT0iMTYuODgyMzMyIiB4PSI5Ljk3NjUzMSIgaWQ9InRzcGFuMjA2NCIgc29kaXBvZGk6cm9sZT0ibGluZSI+c2VjcmV0PC90c3Bhbj48L3RleHQ+JiN4YTsgICAgPGcgaWQ9ImczMzQ3IiB0cmFuc2Zvcm09InRyYW5zbGF0ZSgwLjA1NzEwOTIxLDApIj4mI3hhOyAgICAgIDxwYXRoIHN0eWxlPSJmaWxsOm5vbmU7ZmlsbC1ydWxlOmV2ZW5vZGQ7c3Ryb2tlOiNmZmZmZmY7c3Ryb2tlLXdpZHRoOjAuNzkzNzQ5OTk7c3Ryb2tlLWxpbmVjYXA6YnV0dDtzdHJva2UtbGluZWpvaW46cm91bmQ7c3Ryb2tlLW1pdGVybGltaXQ6MTA7c3Ryb2tlLW9wYWNpdHk6MSIgaW5rc2NhcGU6Y29ubmVjdG9yLWN1cnZhdHVyZT0iMCIgZD0ibSAxMC40MTQyOTksOC4wOTEyMjUzIDMuNzA4MzMxLDAiIGlkPSJwYXRoOTIyIi8+JiN4YTsgICAgICA8cGF0aCBzdHlsZT0iZmlsbDpub25lO2ZpbGwtcnVsZTpldmVub2RkO3N0cm9rZTojZmZmZmZmO3N0cm9rZS13aWR0aDowLjc5NDAwMDAzO3N0cm9rZS1saW5lY2FwOmJ1dHQ7c3Ryb2tlLWxpbmVqb2luOnJvdW5kO3N0cm9rZS1taXRlcmxpbWl0OjEwO3N0cm9rZS1kYXNoYXJyYXk6bm9uZTtzdHJva2Utb3BhY2l0eToxIiBpbmtzY2FwZTpjb25uZWN0b3ItY3VydmF0dXJlPSIwIiBkPSJtIDguMjk3NjI4Miw1Ljk3NDU1ODIgNS44MjUwMDE4LDAiIGlkPSJwYXRoOTMwIi8+JiN4YTsgICAgICA8cGF0aCBzdHlsZT0iZmlsbDpub25lO2ZpbGwtcnVsZTpldmVub2RkO3N0cm9rZTojZmZmZmZmO3N0cm9rZS13aWR0aDowLjc5Mzc0OTk5O3N0cm9rZS1saW5lY2FwOmJ1dHQ7c3Ryb2tlLWxpbmVqb2luOnJvdW5kO3N0cm9rZS1taXRlcmxpbWl0OjEwO3N0cm9rZS1vcGFjaXR5OjEiIGlua3NjYXBlOmNvbm5lY3Rvci1jdXJ2YXR1cmU9IjAiIGQ9Im0gNS43ODM3MzgyLDUuOTc0NTU4MiAxLjQ1ODM0LDAiIGlkPSJwYXRoOTM0Ii8+JiN4YTsgICAgICA8cGF0aCBzdHlsZT0iZmlsbDojZmZmZmZmO2ZpbGwtcnVsZTpldmVub2RkO3N0cm9rZTojMzI2Y2U1O3N0cm9rZS13aWR0aDowLjI2NDU4MzMyO3N0cm9rZS1saW5lY2FwOnNxdWFyZTtzdHJva2UtbWl0ZXJsaW1pdDoxMDtzdHJva2Utb3BhY2l0eToxIiBpbmtzY2FwZTpjb25uZWN0b3ItY3VydmF0dXJlPSIwIiBkPSJtIDcuNzE4Mzc4Miw4LjQzMjE2MDMgMCwwIGMgMCwtMS4xNjY3MDIxIDEuMDExMDg5NywtMi4xMTI1MDExIDIuMjU4MzMwNSwtMi4xMTI1MDExIDEuMjQ3MjQwMywwIDIuMjU4MzMwMywwLjk0NTc5OSAyLjI1ODMzMDMsMi4xMTI1MDExIGwgLTEuMDU2MjQsMCAwLDAgYyAwLC0wLjU4MzM1MSAtMC41MzgyLC0xLjA1NjI1MDEgLTEuMjAyMDkwMywtMS4wNTYyNTAxIC0wLjY2Mzg5MDQsMCAtMS4yMDIwODA4LDAuNDcyODk5MSAtMS4yMDIwODA4LDEuMDU2MjUwMSB6IiBpZD0icGF0aDkzNiIvPiYjeGE7ICAgICAgPHBhdGggc3R5bGU9ImZpbGw6bm9uZTtmaWxsLXJ1bGU6ZXZlbm9kZDtzdHJva2U6I2ZmZmZmZjtzdHJva2Utd2lkdGg6MC43OTM3NDk5OTtzdHJva2UtbGluZWNhcDpidXR0O3N0cm9rZS1saW5lam9pbjpyb3VuZDtzdHJva2UtbWl0ZXJsaW1pdDoxMDtzdHJva2Utb3BhY2l0eToxIiBpbmtzY2FwZTpjb25uZWN0b3ItY3VydmF0dXJlPSIwIiBkPSJtIDEwLjQxNDI5OSwxMC4yMDc4OTMgMy43MDgzMzEsMCIgaWQ9InBhdGg5NDIiLz4mI3hhOyAgICAgIDxwYXRoIHN0eWxlPSJmaWxsOm5vbmU7ZmlsbC1ydWxlOmV2ZW5vZGQ7c3Ryb2tlOiNmZmZmZmY7c3Ryb2tlLXdpZHRoOjAuNzkzNzQ5OTk7c3Ryb2tlLWxpbmVjYXA6YnV0dDtzdHJva2UtbGluZWpvaW46cm91bmQ7c3Ryb2tlLW1pdGVybGltaXQ6MTA7c3Ryb2tlLW9wYWNpdHk6MSIgaW5rc2NhcGU6Y29ubmVjdG9yLWN1cnZhdHVyZT0iMCIgZD0ibSA4LjI5NzYyODIsMTIuMzI0NTYgNS44MjUwMDE4LDAiIGlkPSJwYXRoOTUwIi8+JiN4YTsgICAgICA8cGF0aCBzdHlsZT0iZmlsbDpub25lO2ZpbGwtcnVsZTpldmVub2RkO3N0cm9rZTojZmZmZmZmO3N0cm9rZS13aWR0aDowLjc5Mzc0OTk5O3N0cm9rZS1saW5lY2FwOmJ1dHQ7c3Ryb2tlLWxpbmVqb2luOnJvdW5kO3N0cm9rZS1taXRlcmxpbWl0OjEwO3N0cm9rZS1vcGFjaXR5OjEiIGlua3NjYXBlOmNvbm5lY3Rvci1jdXJ2YXR1cmU9IjAiIGQ9Im0gNS43ODM3MzgyLDEyLjMyNDU2IDEuNDU4MzQsMCIgaWQ9InBhdGg5NTQiLz4mI3hhOyAgICAgIDxwYXRoIHN0eWxlPSJmaWxsOiNmZmZmZmY7ZmlsbC1ydWxlOmV2ZW5vZGQ7c3Ryb2tlOiMzMjZjZTU7c3Ryb2tlLXdpZHRoOjAuMjY0NTgzMzI7c3Ryb2tlLWxpbmVjYXA6c3F1YXJlO3N0cm9rZS1taXRlcmxpbWl0OjEwO3N0cm9rZS1vcGFjaXR5OjEiIGlua3NjYXBlOmNvbm5lY3Rvci1jdXJ2YXR1cmU9IjAiIGQ9Im0gNy4xNjIyMTgyLDguMzY5MTA2MyA1LjYxNjY2MDgsMCAwLDMuNjU4MzMzNyAtNS42MTY2NjA4LDAgeiIgaWQ9InBhdGg5NTYiLz4mI3hhOyAgICAgIDxjaXJjbGUgcj0iMC41NTUxNTI1NCIgY3k9IjEwLjE5ODI3MiIgY3g9IjkuOTcwNTQ0OCIgaWQ9InBhdGg3MjgwIiBzdHlsZT0ib3BhY2l0eToxO2ZpbGw6IzMyNmNlNTtmaWxsLW9wYWNpdHk6MTtmaWxsLXJ1bGU6bm9uemVybztzdHJva2U6bm9uZTtzdHJva2Utd2lkdGg6MC4yNjQ3ODg3NTtzdHJva2UtbGluZWNhcDpidXR0O3N0cm9rZS1saW5lam9pbjpyb3VuZDtzdHJva2UtbWl0ZXJsaW1pdDoxMDtzdHJva2UtZGFzaGFycmF5OjAuNTI5NTc3NDYsIDAuMjY0Nzg4NzM7c3Ryb2tlLWRhc2hvZmZzZXQ6NS4wMTg2MDYxOTtzdHJva2Utb3BhY2l0eToxIi8+JiN4YTsgICAgPC9nPiYjeGE7ICA8L2c+JiN4YTs8L3N2Zz4=;strokeColor=#ef7b4d;" vertex="1" parent="4WFZzYb8yz6Z_idM63du-70">
          <mxGeometry x="108" y="120" width="65" height="65" as="geometry" />
        </mxCell>
        <mxCell id="4WFZzYb8yz6Z_idM63du-71" value="Deployment to EKS from On-premise Management Cluster" style="text;strokeColor=none;fillColor=none;html=1;fontSize=24;fontStyle=1;verticalAlign=middle;align=center;" vertex="1" parent="1">
          <mxGeometry x="70" y="-1960" width="1000" height="40" as="geometry" />
        </mxCell>
      </root>
    </mxGraphModel>
  </diagram>
</mxfile>
